<?xml version="1.0" encoding="utf-8" standalone="no"?>
<!DOCTYPE svg PUBLIC "-//W3C//DTD SVG 1.1//EN"
  "http://www.w3.org/Graphics/SVG/1.1/DTD/svg11.dtd">
<svg xmlns:xlink="http://www.w3.org/1999/xlink" width="2160pt" height="720pt" viewBox="0 0 2160 720" xmlns="http://www.w3.org/2000/svg" version="1.1">
 <metadata>
  <rdf:RDF xmlns:dc="http://purl.org/dc/elements/1.1/" xmlns:cc="http://creativecommons.org/ns#" xmlns:rdf="http://www.w3.org/1999/02/22-rdf-syntax-ns#">
   <cc:Work>
    <dc:type rdf:resource="http://purl.org/dc/dcmitype/StillImage"/>
    <dc:date>2022-11-25T20:55:20.536383</dc:date>
    <dc:format>image/svg+xml</dc:format>
    <dc:creator>
     <cc:Agent>
      <dc:title>Matplotlib v3.5.2, https://matplotlib.org/</dc:title>
     </cc:Agent>
    </dc:creator>
   </cc:Work>
  </rdf:RDF>
 </metadata>
 <defs>
  <style type="text/css">*{stroke-linejoin: round; stroke-linecap: butt}</style>
 </defs>
 <g id="figure_1">
  <g id="patch_1">
   <path d="M 0 720 
L 2160 720 
L 2160 0 
L 0 0 
z
" style="fill: #ffffff"/>
  </g>
  <g id="axes_1">
   <g id="patch_2">
    <path d="M 270 640.8 
L 762.352941 640.8 
L 762.352941 86.4 
L 270 86.4 
z
" style="fill: #ffffff"/>
   </g>
   <g id="matplotlib.axis_1">
    <g id="xtick_1">
     <g id="line2d_1">
      <defs>
       <path id="mf39f50e490" d="M 0 0 
L 0 3.5 
" style="stroke: #000000; stroke-width: 0.8"/>
      </defs>
      <g>
       <use xlink:href="#mf39f50e490" x="284.52716" y="640.8" style="stroke: #000000; stroke-width: 0.8"/>
      </g>
     </g>
     <g id="text_1">
      <!-- 0 -->
      <g transform="translate(281.34591 655.398438)scale(0.1 -0.1)">
       <defs>
        <path id="DejaVuSans-30" d="M 2034 4250 
Q 1547 4250 1301 3770 
Q 1056 3291 1056 2328 
Q 1056 1369 1301 889 
Q 1547 409 2034 409 
Q 2525 409 2770 889 
Q 3016 1369 3016 2328 
Q 3016 3291 2770 3770 
Q 2525 4250 2034 4250 
z
M 2034 4750 
Q 2819 4750 3233 4129 
Q 3647 3509 3647 2328 
Q 3647 1150 3233 529 
Q 2819 -91 2034 -91 
Q 1250 -91 836 529 
Q 422 1150 422 2328 
Q 422 3509 836 4129 
Q 1250 4750 2034 4750 
z
" transform="scale(0.015625)"/>
       </defs>
       <use xlink:href="#DejaVuSans-30"/>
      </g>
     </g>
    </g>
    <g id="xtick_2">
     <g id="line2d_2">
      <g>
       <use xlink:href="#mf39f50e490" x="363.05235" y="640.8" style="stroke: #000000; stroke-width: 0.8"/>
      </g>
     </g>
     <g id="text_2">
      <!-- 50 -->
      <g transform="translate(356.68985 655.398438)scale(0.1 -0.1)">
       <defs>
        <path id="DejaVuSans-35" d="M 691 4666 
L 3169 4666 
L 3169 4134 
L 1269 4134 
L 1269 2991 
Q 1406 3038 1543 3061 
Q 1681 3084 1819 3084 
Q 2600 3084 3056 2656 
Q 3513 2228 3513 1497 
Q 3513 744 3044 326 
Q 2575 -91 1722 -91 
Q 1428 -91 1123 -41 
Q 819 9 494 109 
L 494 744 
Q 775 591 1075 516 
Q 1375 441 1709 441 
Q 2250 441 2565 725 
Q 2881 1009 2881 1497 
Q 2881 1984 2565 2268 
Q 2250 2553 1709 2553 
Q 1456 2553 1204 2497 
Q 953 2441 691 2322 
L 691 4666 
z
" transform="scale(0.015625)"/>
       </defs>
       <use xlink:href="#DejaVuSans-35"/>
       <use xlink:href="#DejaVuSans-30" x="63.623047"/>
      </g>
     </g>
    </g>
    <g id="xtick_3">
     <g id="line2d_3">
      <g>
       <use xlink:href="#mf39f50e490" x="441.57754" y="640.8" style="stroke: #000000; stroke-width: 0.8"/>
      </g>
     </g>
     <g id="text_3">
      <!-- 100 -->
      <g transform="translate(432.03379 655.398438)scale(0.1 -0.1)">
       <defs>
        <path id="DejaVuSans-31" d="M 794 531 
L 1825 531 
L 1825 4091 
L 703 3866 
L 703 4441 
L 1819 4666 
L 2450 4666 
L 2450 531 
L 3481 531 
L 3481 0 
L 794 0 
L 794 531 
z
" transform="scale(0.015625)"/>
       </defs>
       <use xlink:href="#DejaVuSans-31"/>
       <use xlink:href="#DejaVuSans-30" x="63.623047"/>
       <use xlink:href="#DejaVuSans-30" x="127.246094"/>
      </g>
     </g>
    </g>
    <g id="xtick_4">
     <g id="line2d_4">
      <g>
       <use xlink:href="#mf39f50e490" x="520.10273" y="640.8" style="stroke: #000000; stroke-width: 0.8"/>
      </g>
     </g>
     <g id="text_4">
      <!-- 150 -->
      <g transform="translate(510.55898 655.398438)scale(0.1 -0.1)">
       <use xlink:href="#DejaVuSans-31"/>
       <use xlink:href="#DejaVuSans-35" x="63.623047"/>
       <use xlink:href="#DejaVuSans-30" x="127.246094"/>
      </g>
     </g>
    </g>
    <g id="xtick_5">
     <g id="line2d_5">
      <g>
       <use xlink:href="#mf39f50e490" x="598.62792" y="640.8" style="stroke: #000000; stroke-width: 0.8"/>
      </g>
     </g>
     <g id="text_5">
      <!-- 200 -->
      <g transform="translate(589.08417 655.398438)scale(0.1 -0.1)">
       <defs>
        <path id="DejaVuSans-32" d="M 1228 531 
L 3431 531 
L 3431 0 
L 469 0 
L 469 531 
Q 828 903 1448 1529 
Q 2069 2156 2228 2338 
Q 2531 2678 2651 2914 
Q 2772 3150 2772 3378 
Q 2772 3750 2511 3984 
Q 2250 4219 1831 4219 
Q 1534 4219 1204 4116 
Q 875 4013 500 3803 
L 500 4441 
Q 881 4594 1212 4672 
Q 1544 4750 1819 4750 
Q 2544 4750 2975 4387 
Q 3406 4025 3406 3419 
Q 3406 3131 3298 2873 
Q 3191 2616 2906 2266 
Q 2828 2175 2409 1742 
Q 1991 1309 1228 531 
z
" transform="scale(0.015625)"/>
       </defs>
       <use xlink:href="#DejaVuSans-32"/>
       <use xlink:href="#DejaVuSans-30" x="63.623047"/>
       <use xlink:href="#DejaVuSans-30" x="127.246094"/>
      </g>
     </g>
    </g>
    <g id="xtick_6">
     <g id="line2d_6">
      <g>
       <use xlink:href="#mf39f50e490" x="677.15311" y="640.8" style="stroke: #000000; stroke-width: 0.8"/>
      </g>
     </g>
     <g id="text_6">
      <!-- 250 -->
      <g transform="translate(667.60936 655.398438)scale(0.1 -0.1)">
       <use xlink:href="#DejaVuSans-32"/>
       <use xlink:href="#DejaVuSans-35" x="63.623047"/>
       <use xlink:href="#DejaVuSans-30" x="127.246094"/>
      </g>
     </g>
    </g>
    <g id="xtick_7">
     <g id="line2d_7">
      <g>
       <use xlink:href="#mf39f50e490" x="755.6783" y="640.8" style="stroke: #000000; stroke-width: 0.8"/>
      </g>
     </g>
     <g id="text_7">
      <!-- 300 -->
      <g transform="translate(746.13455 655.398438)scale(0.1 -0.1)">
       <defs>
        <path id="DejaVuSans-33" d="M 2597 2516 
Q 3050 2419 3304 2112 
Q 3559 1806 3559 1356 
Q 3559 666 3084 287 
Q 2609 -91 1734 -91 
Q 1441 -91 1130 -33 
Q 819 25 488 141 
L 488 750 
Q 750 597 1062 519 
Q 1375 441 1716 441 
Q 2309 441 2620 675 
Q 2931 909 2931 1356 
Q 2931 1769 2642 2001 
Q 2353 2234 1838 2234 
L 1294 2234 
L 1294 2753 
L 1863 2753 
Q 2328 2753 2575 2939 
Q 2822 3125 2822 3475 
Q 2822 3834 2567 4026 
Q 2313 4219 1838 4219 
Q 1578 4219 1281 4162 
Q 984 4106 628 3988 
L 628 4550 
Q 988 4650 1302 4700 
Q 1616 4750 1894 4750 
Q 2613 4750 3031 4423 
Q 3450 4097 3450 3541 
Q 3450 3153 3228 2886 
Q 3006 2619 2597 2516 
z
" transform="scale(0.015625)"/>
       </defs>
       <use xlink:href="#DejaVuSans-33"/>
       <use xlink:href="#DejaVuSans-30" x="63.623047"/>
       <use xlink:href="#DejaVuSans-30" x="127.246094"/>
      </g>
     </g>
    </g>
    <g id="text_8">
     <!-- num_segments -->
     <g transform="translate(477.932721 668.798437)scale(0.1 -0.1)">
      <defs>
       <path id="DejaVuSans-6e" d="M 3513 2113 
L 3513 0 
L 2938 0 
L 2938 2094 
Q 2938 2591 2744 2837 
Q 2550 3084 2163 3084 
Q 1697 3084 1428 2787 
Q 1159 2491 1159 1978 
L 1159 0 
L 581 0 
L 581 3500 
L 1159 3500 
L 1159 2956 
Q 1366 3272 1645 3428 
Q 1925 3584 2291 3584 
Q 2894 3584 3203 3211 
Q 3513 2838 3513 2113 
z
" transform="scale(0.015625)"/>
       <path id="DejaVuSans-75" d="M 544 1381 
L 544 3500 
L 1119 3500 
L 1119 1403 
Q 1119 906 1312 657 
Q 1506 409 1894 409 
Q 2359 409 2629 706 
Q 2900 1003 2900 1516 
L 2900 3500 
L 3475 3500 
L 3475 0 
L 2900 0 
L 2900 538 
Q 2691 219 2414 64 
Q 2138 -91 1772 -91 
Q 1169 -91 856 284 
Q 544 659 544 1381 
z
M 1991 3584 
L 1991 3584 
z
" transform="scale(0.015625)"/>
       <path id="DejaVuSans-6d" d="M 3328 2828 
Q 3544 3216 3844 3400 
Q 4144 3584 4550 3584 
Q 5097 3584 5394 3201 
Q 5691 2819 5691 2113 
L 5691 0 
L 5113 0 
L 5113 2094 
Q 5113 2597 4934 2840 
Q 4756 3084 4391 3084 
Q 3944 3084 3684 2787 
Q 3425 2491 3425 1978 
L 3425 0 
L 2847 0 
L 2847 2094 
Q 2847 2600 2669 2842 
Q 2491 3084 2119 3084 
Q 1678 3084 1418 2786 
Q 1159 2488 1159 1978 
L 1159 0 
L 581 0 
L 581 3500 
L 1159 3500 
L 1159 2956 
Q 1356 3278 1631 3431 
Q 1906 3584 2284 3584 
Q 2666 3584 2933 3390 
Q 3200 3197 3328 2828 
z
" transform="scale(0.015625)"/>
       <path id="DejaVuSans-5f" d="M 3263 -1063 
L 3263 -1509 
L -63 -1509 
L -63 -1063 
L 3263 -1063 
z
" transform="scale(0.015625)"/>
       <path id="DejaVuSans-73" d="M 2834 3397 
L 2834 2853 
Q 2591 2978 2328 3040 
Q 2066 3103 1784 3103 
Q 1356 3103 1142 2972 
Q 928 2841 928 2578 
Q 928 2378 1081 2264 
Q 1234 2150 1697 2047 
L 1894 2003 
Q 2506 1872 2764 1633 
Q 3022 1394 3022 966 
Q 3022 478 2636 193 
Q 2250 -91 1575 -91 
Q 1294 -91 989 -36 
Q 684 19 347 128 
L 347 722 
Q 666 556 975 473 
Q 1284 391 1588 391 
Q 1994 391 2212 530 
Q 2431 669 2431 922 
Q 2431 1156 2273 1281 
Q 2116 1406 1581 1522 
L 1381 1569 
Q 847 1681 609 1914 
Q 372 2147 372 2553 
Q 372 3047 722 3315 
Q 1072 3584 1716 3584 
Q 2034 3584 2315 3537 
Q 2597 3491 2834 3397 
z
" transform="scale(0.015625)"/>
       <path id="DejaVuSans-65" d="M 3597 1894 
L 3597 1613 
L 953 1613 
Q 991 1019 1311 708 
Q 1631 397 2203 397 
Q 2534 397 2845 478 
Q 3156 559 3463 722 
L 3463 178 
Q 3153 47 2828 -22 
Q 2503 -91 2169 -91 
Q 1331 -91 842 396 
Q 353 884 353 1716 
Q 353 2575 817 3079 
Q 1281 3584 2069 3584 
Q 2775 3584 3186 3129 
Q 3597 2675 3597 1894 
z
M 3022 2063 
Q 3016 2534 2758 2815 
Q 2500 3097 2075 3097 
Q 1594 3097 1305 2825 
Q 1016 2553 972 2059 
L 3022 2063 
z
" transform="scale(0.015625)"/>
       <path id="DejaVuSans-67" d="M 2906 1791 
Q 2906 2416 2648 2759 
Q 2391 3103 1925 3103 
Q 1463 3103 1205 2759 
Q 947 2416 947 1791 
Q 947 1169 1205 825 
Q 1463 481 1925 481 
Q 2391 481 2648 825 
Q 2906 1169 2906 1791 
z
M 3481 434 
Q 3481 -459 3084 -895 
Q 2688 -1331 1869 -1331 
Q 1566 -1331 1297 -1286 
Q 1028 -1241 775 -1147 
L 775 -588 
Q 1028 -725 1275 -790 
Q 1522 -856 1778 -856 
Q 2344 -856 2625 -561 
Q 2906 -266 2906 331 
L 2906 616 
Q 2728 306 2450 153 
Q 2172 0 1784 0 
Q 1141 0 747 490 
Q 353 981 353 1791 
Q 353 2603 747 3093 
Q 1141 3584 1784 3584 
Q 2172 3584 2450 3431 
Q 2728 3278 2906 2969 
L 2906 3500 
L 3481 3500 
L 3481 434 
z
" transform="scale(0.015625)"/>
       <path id="DejaVuSans-74" d="M 1172 4494 
L 1172 3500 
L 2356 3500 
L 2356 3053 
L 1172 3053 
L 1172 1153 
Q 1172 725 1289 603 
Q 1406 481 1766 481 
L 2356 481 
L 2356 0 
L 1766 0 
Q 1100 0 847 248 
Q 594 497 594 1153 
L 594 3053 
L 172 3053 
L 172 3500 
L 594 3500 
L 594 4494 
L 1172 4494 
z
" transform="scale(0.015625)"/>
      </defs>
      <use xlink:href="#DejaVuSans-6e"/>
      <use xlink:href="#DejaVuSans-75" x="63.378906"/>
      <use xlink:href="#DejaVuSans-6d" x="126.757812"/>
      <use xlink:href="#DejaVuSans-5f" x="224.169922"/>
      <use xlink:href="#DejaVuSans-73" x="274.169922"/>
      <use xlink:href="#DejaVuSans-65" x="326.269531"/>
      <use xlink:href="#DejaVuSans-67" x="387.792969"/>
      <use xlink:href="#DejaVuSans-6d" x="451.269531"/>
      <use xlink:href="#DejaVuSans-65" x="548.681641"/>
      <use xlink:href="#DejaVuSans-6e" x="610.205078"/>
      <use xlink:href="#DejaVuSans-74" x="673.583984"/>
      <use xlink:href="#DejaVuSans-73" x="712.792969"/>
     </g>
    </g>
   </g>
   <g id="matplotlib.axis_2">
    <g id="ytick_1">
     <g id="line2d_8">
      <defs>
       <path id="mb3d762feae" d="M 0 0 
L -3.5 0 
" style="stroke: #000000; stroke-width: 0.8"/>
      </defs>
      <g>
       <use xlink:href="#mb3d762feae" x="270" y="600.380618" style="stroke: #000000; stroke-width: 0.8"/>
      </g>
     </g>
     <g id="text_9">
      <!-- 0.3 -->
      <g transform="translate(247.096875 604.179837)scale(0.1 -0.1)">
       <defs>
        <path id="DejaVuSans-2e" d="M 684 794 
L 1344 794 
L 1344 0 
L 684 0 
L 684 794 
z
" transform="scale(0.015625)"/>
       </defs>
       <use xlink:href="#DejaVuSans-30"/>
       <use xlink:href="#DejaVuSans-2e" x="63.623047"/>
       <use xlink:href="#DejaVuSans-33" x="95.410156"/>
      </g>
     </g>
    </g>
    <g id="ytick_2">
     <g id="line2d_9">
      <g>
       <use xlink:href="#mb3d762feae" x="270" y="521.519583" style="stroke: #000000; stroke-width: 0.8"/>
      </g>
     </g>
     <g id="text_10">
      <!-- 0.4 -->
      <g transform="translate(247.096875 525.318802)scale(0.1 -0.1)">
       <defs>
        <path id="DejaVuSans-34" d="M 2419 4116 
L 825 1625 
L 2419 1625 
L 2419 4116 
z
M 2253 4666 
L 3047 4666 
L 3047 1625 
L 3713 1625 
L 3713 1100 
L 3047 1100 
L 3047 0 
L 2419 0 
L 2419 1100 
L 313 1100 
L 313 1709 
L 2253 4666 
z
" transform="scale(0.015625)"/>
       </defs>
       <use xlink:href="#DejaVuSans-30"/>
       <use xlink:href="#DejaVuSans-2e" x="63.623047"/>
       <use xlink:href="#DejaVuSans-34" x="95.410156"/>
      </g>
     </g>
    </g>
    <g id="ytick_3">
     <g id="line2d_10">
      <g>
       <use xlink:href="#mb3d762feae" x="270" y="442.658547" style="stroke: #000000; stroke-width: 0.8"/>
      </g>
     </g>
     <g id="text_11">
      <!-- 0.5 -->
      <g transform="translate(247.096875 446.457766)scale(0.1 -0.1)">
       <use xlink:href="#DejaVuSans-30"/>
       <use xlink:href="#DejaVuSans-2e" x="63.623047"/>
       <use xlink:href="#DejaVuSans-35" x="95.410156"/>
      </g>
     </g>
    </g>
    <g id="ytick_4">
     <g id="line2d_11">
      <g>
       <use xlink:href="#mb3d762feae" x="270" y="363.797512" style="stroke: #000000; stroke-width: 0.8"/>
      </g>
     </g>
     <g id="text_12">
      <!-- 0.6 -->
      <g transform="translate(247.096875 367.59673)scale(0.1 -0.1)">
       <defs>
        <path id="DejaVuSans-36" d="M 2113 2584 
Q 1688 2584 1439 2293 
Q 1191 2003 1191 1497 
Q 1191 994 1439 701 
Q 1688 409 2113 409 
Q 2538 409 2786 701 
Q 3034 994 3034 1497 
Q 3034 2003 2786 2293 
Q 2538 2584 2113 2584 
z
M 3366 4563 
L 3366 3988 
Q 3128 4100 2886 4159 
Q 2644 4219 2406 4219 
Q 1781 4219 1451 3797 
Q 1122 3375 1075 2522 
Q 1259 2794 1537 2939 
Q 1816 3084 2150 3084 
Q 2853 3084 3261 2657 
Q 3669 2231 3669 1497 
Q 3669 778 3244 343 
Q 2819 -91 2113 -91 
Q 1303 -91 875 529 
Q 447 1150 447 2328 
Q 447 3434 972 4092 
Q 1497 4750 2381 4750 
Q 2619 4750 2861 4703 
Q 3103 4656 3366 4563 
z
" transform="scale(0.015625)"/>
       </defs>
       <use xlink:href="#DejaVuSans-30"/>
       <use xlink:href="#DejaVuSans-2e" x="63.623047"/>
       <use xlink:href="#DejaVuSans-36" x="95.410156"/>
      </g>
     </g>
    </g>
    <g id="ytick_5">
     <g id="line2d_12">
      <g>
       <use xlink:href="#mb3d762feae" x="270" y="284.936476" style="stroke: #000000; stroke-width: 0.8"/>
      </g>
     </g>
     <g id="text_13">
      <!-- 0.7 -->
      <g transform="translate(247.096875 288.735695)scale(0.1 -0.1)">
       <defs>
        <path id="DejaVuSans-37" d="M 525 4666 
L 3525 4666 
L 3525 4397 
L 1831 0 
L 1172 0 
L 2766 4134 
L 525 4134 
L 525 4666 
z
" transform="scale(0.015625)"/>
       </defs>
       <use xlink:href="#DejaVuSans-30"/>
       <use xlink:href="#DejaVuSans-2e" x="63.623047"/>
       <use xlink:href="#DejaVuSans-37" x="95.410156"/>
      </g>
     </g>
    </g>
    <g id="ytick_6">
     <g id="line2d_13">
      <g>
       <use xlink:href="#mb3d762feae" x="270" y="206.07544" style="stroke: #000000; stroke-width: 0.8"/>
      </g>
     </g>
     <g id="text_14">
      <!-- 0.8 -->
      <g transform="translate(247.096875 209.874659)scale(0.1 -0.1)">
       <defs>
        <path id="DejaVuSans-38" d="M 2034 2216 
Q 1584 2216 1326 1975 
Q 1069 1734 1069 1313 
Q 1069 891 1326 650 
Q 1584 409 2034 409 
Q 2484 409 2743 651 
Q 3003 894 3003 1313 
Q 3003 1734 2745 1975 
Q 2488 2216 2034 2216 
z
M 1403 2484 
Q 997 2584 770 2862 
Q 544 3141 544 3541 
Q 544 4100 942 4425 
Q 1341 4750 2034 4750 
Q 2731 4750 3128 4425 
Q 3525 4100 3525 3541 
Q 3525 3141 3298 2862 
Q 3072 2584 2669 2484 
Q 3125 2378 3379 2068 
Q 3634 1759 3634 1313 
Q 3634 634 3220 271 
Q 2806 -91 2034 -91 
Q 1263 -91 848 271 
Q 434 634 434 1313 
Q 434 1759 690 2068 
Q 947 2378 1403 2484 
z
M 1172 3481 
Q 1172 3119 1398 2916 
Q 1625 2713 2034 2713 
Q 2441 2713 2670 2916 
Q 2900 3119 2900 3481 
Q 2900 3844 2670 4047 
Q 2441 4250 2034 4250 
Q 1625 4250 1398 4047 
Q 1172 3844 1172 3481 
z
" transform="scale(0.015625)"/>
       </defs>
       <use xlink:href="#DejaVuSans-30"/>
       <use xlink:href="#DejaVuSans-2e" x="63.623047"/>
       <use xlink:href="#DejaVuSans-38" x="95.410156"/>
      </g>
     </g>
    </g>
    <g id="ytick_7">
     <g id="line2d_14">
      <g>
       <use xlink:href="#mb3d762feae" x="270" y="127.214405" style="stroke: #000000; stroke-width: 0.8"/>
      </g>
     </g>
     <g id="text_15">
      <!-- 0.9 -->
      <g transform="translate(247.096875 131.013624)scale(0.1 -0.1)">
       <defs>
        <path id="DejaVuSans-39" d="M 703 97 
L 703 672 
Q 941 559 1184 500 
Q 1428 441 1663 441 
Q 2288 441 2617 861 
Q 2947 1281 2994 2138 
Q 2813 1869 2534 1725 
Q 2256 1581 1919 1581 
Q 1219 1581 811 2004 
Q 403 2428 403 3163 
Q 403 3881 828 4315 
Q 1253 4750 1959 4750 
Q 2769 4750 3195 4129 
Q 3622 3509 3622 2328 
Q 3622 1225 3098 567 
Q 2575 -91 1691 -91 
Q 1453 -91 1209 -44 
Q 966 3 703 97 
z
M 1959 2075 
Q 2384 2075 2632 2365 
Q 2881 2656 2881 3163 
Q 2881 3666 2632 3958 
Q 2384 4250 1959 4250 
Q 1534 4250 1286 3958 
Q 1038 3666 1038 3163 
Q 1038 2656 1286 2365 
Q 1534 2075 1959 2075 
z
" transform="scale(0.015625)"/>
       </defs>
       <use xlink:href="#DejaVuSans-30"/>
       <use xlink:href="#DejaVuSans-2e" x="63.623047"/>
       <use xlink:href="#DejaVuSans-39" x="95.410156"/>
      </g>
     </g>
    </g>
    <g id="text_16">
     <!-- rsq -->
     <g transform="translate(241.017188 371.434375)rotate(-90)scale(0.1 -0.1)">
      <defs>
       <path id="DejaVuSans-72" d="M 2631 2963 
Q 2534 3019 2420 3045 
Q 2306 3072 2169 3072 
Q 1681 3072 1420 2755 
Q 1159 2438 1159 1844 
L 1159 0 
L 581 0 
L 581 3500 
L 1159 3500 
L 1159 2956 
Q 1341 3275 1631 3429 
Q 1922 3584 2338 3584 
Q 2397 3584 2469 3576 
Q 2541 3569 2628 3553 
L 2631 2963 
z
" transform="scale(0.015625)"/>
       <path id="DejaVuSans-71" d="M 947 1747 
Q 947 1113 1208 752 
Q 1469 391 1925 391 
Q 2381 391 2643 752 
Q 2906 1113 2906 1747 
Q 2906 2381 2643 2742 
Q 2381 3103 1925 3103 
Q 1469 3103 1208 2742 
Q 947 2381 947 1747 
z
M 2906 525 
Q 2725 213 2448 61 
Q 2172 -91 1784 -91 
Q 1150 -91 751 415 
Q 353 922 353 1747 
Q 353 2572 751 3078 
Q 1150 3584 1784 3584 
Q 2172 3584 2448 3432 
Q 2725 3281 2906 2969 
L 2906 3500 
L 3481 3500 
L 3481 -1331 
L 2906 -1331 
L 2906 525 
z
" transform="scale(0.015625)"/>
      </defs>
      <use xlink:href="#DejaVuSans-72"/>
      <use xlink:href="#DejaVuSans-73" x="41.113281"/>
      <use xlink:href="#DejaVuSans-71" x="93.212891"/>
     </g>
    </g>
   </g>
   <g id="line2d_15">
    <path d="M 292.379679 288.904763 
L 293.950183 273.664805 
L 297.091191 256.511284 
L 298.661694 248.924697 
L 300.232198 245.070177 
L 301.802702 242.059372 
L 303.373206 240.120523 
L 306.514213 237.381012 
L 309.655221 235.431816 
L 312.796229 234.183451 
L 315.937236 233.14361 
L 322.219251 231.925963 
L 326.930763 231.182915 
L 334.783282 230.65865 
L 345.776808 230.230949 
L 358.340839 229.94479 
L 377.186884 229.739806 
L 424.301998 229.585698 
L 537.378272 229.523835 
L 537.378272 229.523835 
" clip-path="url(#p4415d408fc)" style="fill: none; stroke: #1f77b4; stroke-width: 1.5; stroke-linecap: square"/>
   </g>
   <g id="line2d_16">
    <path d="M 292.379679 615.6 
L 293.950183 602.174133 
L 295.520687 595.783107 
L 298.661694 589.886594 
L 300.232198 587.344511 
L 301.802702 585.835133 
L 304.94371 583.775969 
L 306.514213 583.138602 
L 308.084717 582.647813 
L 311.225725 581.979263 
L 315.937236 581.178322 
L 320.648748 580.652974 
L 328.501267 580.221134 
L 342.635801 579.750291 
L 356.770335 579.543798 
L 386.609907 579.343423 
L 443.148044 579.242266 
L 546.801295 579.208845 
L 546.801295 579.208845 
" clip-path="url(#p4415d408fc)" style="fill: none; stroke: #ff7f0e; stroke-width: 1.5; stroke-linecap: square"/>
   </g>
   <g id="line2d_17">
    <path d="M 292.379679 328.068193 
L 293.950183 313.256279 
L 295.520687 300.561796 
L 297.091191 293.203291 
L 300.232198 283.565951 
L 301.802702 279.575193 
L 304.94371 275.025844 
L 308.084717 271.368835 
L 311.225725 269.863317 
L 314.366732 268.677949 
L 317.50774 267.747649 
L 320.648748 267.088243 
L 325.360259 266.390947 
L 333.212778 265.594544 
L 339.494793 265.158123 
L 347.347312 264.841196 
L 361.481846 264.596015 
L 392.891922 264.312462 
L 455.712074 264.17725 
L 535.807768 264.139259 
L 535.807768 264.139259 
" clip-path="url(#p4415d408fc)" style="fill: none; stroke: #2ca02c; stroke-width: 1.5; stroke-linecap: square"/>
   </g>
   <g id="line2d_18">
    <path d="M 292.379679 557.261692 
L 295.520687 539.178247 
L 297.091191 535.283091 
L 298.661694 531.878707 
L 301.802702 527.801808 
L 303.373206 525.923597 
L 306.514213 524.261461 
L 309.655221 522.883593 
L 312.796229 521.703202 
L 315.937236 520.783677 
L 317.50774 520.423404 
L 320.648748 520.034577 
L 326.930763 519.528142 
L 334.783282 519.062324 
L 344.206305 518.737189 
L 363.05235 518.506537 
L 392.891922 518.368591 
L 466.705601 518.289593 
L 510.679707 518.275262 
L 510.679707 518.275262 
" clip-path="url(#p4415d408fc)" style="fill: none; stroke: #d62728; stroke-width: 1.5; stroke-linecap: square"/>
   </g>
   <g id="line2d_19">
    <path d="M 292.379679 264.612537 
L 293.950183 247.421394 
L 295.520687 237.620413 
L 297.091191 229.669801 
L 298.661694 225.387927 
L 301.802702 219.464438 
L 303.373206 217.315791 
L 304.94371 215.795739 
L 306.514213 214.443701 
L 309.655221 212.643767 
L 311.225725 211.944567 
L 315.937236 210.520035 
L 320.648748 209.590555 
L 323.789755 209.147187 
L 331.642274 208.521783 
L 341.065297 208.05401 
L 355.199831 207.553808 
L 369.334365 207.34622 
L 399.173938 207.149806 
L 469.846608 207.014389 
L 568.788348 206.984919 
L 568.788348 206.984919 
" clip-path="url(#p4415d408fc)" style="fill: none; stroke: #9467bd; stroke-width: 1.5; stroke-linecap: square"/>
   </g>
   <g id="line2d_20">
    <path d="M 292.379679 413.091884 
L 293.950183 401.046282 
L 295.520687 390.250815 
L 297.091191 384.731283 
L 300.232198 378.223705 
L 301.802702 375.285897 
L 303.373206 372.586769 
L 304.94371 370.220768 
L 306.514213 369.069785 
L 311.225725 366.708765 
L 314.366732 365.658974 
L 319.078244 364.429064 
L 323.789755 363.377426 
L 330.07177 362.738336 
L 336.353786 362.389594 
L 350.48832 361.935381 
L 364.622854 361.73798 
L 399.173938 361.530948 
L 460.423586 361.428566 
L 570.358852 361.39243 
L 570.358852 361.39243 
" clip-path="url(#p4415d408fc)" style="fill: none; stroke: #8c564b; stroke-width: 1.5; stroke-linecap: square"/>
   </g>
   <g id="line2d_21">
    <path d="M 292.379679 188.113396 
L 293.950183 166.518329 
L 295.520687 149.475312 
L 297.091191 139.283733 
L 298.661694 134.696752 
L 300.232198 131.39392 
L 303.373206 125.593965 
L 306.514213 121.584428 
L 308.084717 120.125796 
L 309.655221 119.206025 
L 312.796229 117.727848 
L 314.366732 117.047569 
L 317.50774 116.059975 
L 325.360259 114.41149 
L 330.07177 113.784734 
L 336.353786 113.20815 
L 344.206305 112.714846 
L 355.199831 112.344461 
L 369.334365 112.071169 
L 394.462426 111.855609 
L 441.57754 111.697972 
L 546.801295 111.618991 
L 739.973262 111.6 
L 739.973262 111.6 
" clip-path="url(#p4415d408fc)" style="fill: none; stroke: #e377c2; stroke-width: 1.5; stroke-linecap: square"/>
   </g>
   <g id="line2d_22">
    <path d="M 292.379679 236.940312 
L 293.950183 221.177542 
L 295.520687 212.338937 
L 297.091191 205.263687 
L 300.232198 196.133755 
L 301.802702 193.063544 
L 304.94371 188.58392 
L 308.084717 185.394638 
L 309.655221 184.509766 
L 312.796229 183.218354 
L 315.937236 182.15023 
L 319.078244 181.366716 
L 322.219251 180.735743 
L 325.360259 180.255448 
L 331.642274 179.631826 
L 339.494793 179.105776 
L 345.776808 178.852715 
L 359.911343 178.52001 
L 380.327892 178.281618 
L 419.590487 178.101727 
L 509.109203 178.004315 
L 597.057416 177.982588 
L 597.057416 177.982588 
" clip-path="url(#p4415d408fc)" style="fill: none; stroke: #7f7f7f; stroke-width: 1.5; stroke-linecap: square"/>
   </g>
   <g id="line2d_23">
    <path d="M 292.379679 229.201202 
L 293.950183 211.619636 
L 295.520687 200.805093 
L 297.091191 192.682379 
L 298.661694 185.704999 
L 300.232198 180.908154 
L 301.802702 177.360682 
L 303.373206 175.352979 
L 304.94371 173.559852 
L 306.514213 172.080662 
L 309.655221 169.790456 
L 311.225725 168.772071 
L 312.796229 167.888384 
L 314.366732 167.186775 
L 317.50774 166.342842 
L 320.648748 165.78575 
L 325.360259 165.142098 
L 334.783282 164.356439 
L 341.065297 164.044733 
L 356.770335 163.667078 
L 375.616381 163.425466 
L 413.308472 163.273965 
L 499.686181 163.187875 
L 628.467492 163.167889 
L 628.467492 163.167889 
" clip-path="url(#p4415d408fc)" style="fill: none; stroke: #bcbd22; stroke-width: 1.5; stroke-linecap: square"/>
   </g>
   <g id="line2d_24">
    <path d="M 292.379679 340.56539 
L 293.950183 322.654357 
L 295.520687 310.327414 
L 297.091191 304.029827 
L 300.232198 293.128422 
L 301.802702 288.544122 
L 303.373206 286.964095 
L 306.514213 284.509162 
L 309.655221 282.602409 
L 311.225725 281.732066 
L 314.366732 280.588709 
L 315.937236 280.146203 
L 322.219251 278.977985 
L 326.930763 278.431362 
L 334.783282 277.911334 
L 344.206305 277.565433 
L 358.340839 277.241198 
L 375.616381 277.026706 
L 403.885449 276.904679 
L 479.269631 276.809148 
L 510.679707 276.798238 
L 510.679707 276.798238 
" clip-path="url(#p4415d408fc)" style="fill: none; stroke: #17becf; stroke-width: 1.5; stroke-linecap: square"/>
   </g>
   <g id="line2d_25"/>
   <g id="line2d_26"/>
   <g id="line2d_27"/>
   <g id="line2d_28"/>
   <g id="line2d_29"/>
   <g id="line2d_30"/>
   <g id="line2d_31"/>
   <g id="line2d_32"/>
   <g id="line2d_33"/>
   <g id="line2d_34"/>
   <g id="line2d_35">
    <path d="M 270 229.511898 
L 762.352941 229.511898 
" clip-path="url(#p4415d408fc)" style="fill: none; stroke-dasharray: 5.55,2.4; stroke-dashoffset: 0; stroke: #000000; stroke-opacity: 0.3; stroke-width: 1.5"/>
   </g>
   <g id="line2d_36">
    <path d="M 270 579.197612 
L 762.352941 579.197612 
" clip-path="url(#p4415d408fc)" style="fill: none; stroke-dasharray: 5.55,2.4; stroke-dashoffset: 0; stroke: #000000; stroke-opacity: 0.3; stroke-width: 1.5"/>
   </g>
   <g id="line2d_37">
    <path d="M 270 264.117428 
L 762.352941 264.117428 
" clip-path="url(#p4415d408fc)" style="fill: none; stroke-dasharray: 5.55,2.4; stroke-dashoffset: 0; stroke: #000000; stroke-opacity: 0.3; stroke-width: 1.5"/>
   </g>
   <g id="line2d_38">
    <path d="M 270 518.260836 
L 762.352941 518.260836 
" clip-path="url(#p4415d408fc)" style="fill: none; stroke-dasharray: 5.55,2.4; stroke-dashoffset: 0; stroke: #000000; stroke-opacity: 0.3; stroke-width: 1.5"/>
   </g>
   <g id="line2d_39">
    <path d="M 270 206.973882 
L 762.352941 206.973882 
" clip-path="url(#p4415d408fc)" style="fill: none; stroke-dasharray: 5.55,2.4; stroke-dashoffset: 0; stroke: #000000; stroke-opacity: 0.3; stroke-width: 1.5"/>
   </g>
   <g id="line2d_40">
    <path d="M 270 361.38084 
L 762.352941 361.38084 
" clip-path="url(#p4415d408fc)" style="fill: none; stroke-dasharray: 5.55,2.4; stroke-dashoffset: 0; stroke: #000000; stroke-opacity: 0.3; stroke-width: 1.5"/>
   </g>
   <g id="line2d_41">
    <path d="M 270 111.596494 
L 762.352941 111.596494 
" clip-path="url(#p4415d408fc)" style="fill: none; stroke-dasharray: 5.55,2.4; stroke-dashoffset: 0; stroke: #000000; stroke-opacity: 0.3; stroke-width: 1.5"/>
   </g>
   <g id="line2d_42">
    <path d="M 270 177.970627 
L 762.352941 177.970627 
" clip-path="url(#p4415d408fc)" style="fill: none; stroke-dasharray: 5.55,2.4; stroke-dashoffset: 0; stroke: #000000; stroke-opacity: 0.3; stroke-width: 1.5"/>
   </g>
   <g id="line2d_43">
    <path d="M 270 163.161921 
L 762.352941 163.161921 
" clip-path="url(#p4415d408fc)" style="fill: none; stroke-dasharray: 5.55,2.4; stroke-dashoffset: 0; stroke: #000000; stroke-opacity: 0.3; stroke-width: 1.5"/>
   </g>
   <g id="line2d_44">
    <path d="M 270 276.778474 
L 762.352941 276.778474 
" clip-path="url(#p4415d408fc)" style="fill: none; stroke-dasharray: 5.55,2.4; stroke-dashoffset: 0; stroke: #000000; stroke-opacity: 0.3; stroke-width: 1.5"/>
   </g>
   <g id="patch_3">
    <path d="M 270 640.8 
L 270 86.4 
" style="fill: none; stroke: #000000; stroke-width: 0.8; stroke-linejoin: miter; stroke-linecap: square"/>
   </g>
   <g id="patch_4">
    <path d="M 762.352941 640.8 
L 762.352941 86.4 
" style="fill: none; stroke: #000000; stroke-width: 0.8; stroke-linejoin: miter; stroke-linecap: square"/>
   </g>
   <g id="patch_5">
    <path d="M 270 640.8 
L 762.352941 640.8 
" style="fill: none; stroke: #000000; stroke-width: 0.8; stroke-linejoin: miter; stroke-linecap: square"/>
   </g>
   <g id="patch_6">
    <path d="M 270 86.4 
L 762.352941 86.4 
" style="fill: none; stroke: #000000; stroke-width: 0.8; stroke-linejoin: miter; stroke-linecap: square"/>
   </g>
   <g id="legend_1">
    <g id="patch_7">
     <path d="M 675.632629 447.220312 
L 755.352941 447.220312 
Q 757.352941 447.220312 757.352941 445.220312 
L 757.352941 281.979687 
Q 757.352941 279.979687 755.352941 279.979687 
L 675.632629 279.979687 
Q 673.632629 279.979687 673.632629 281.979687 
L 673.632629 445.220312 
Q 673.632629 447.220312 675.632629 447.220312 
z
" style="fill: #ffffff; opacity: 0.8; stroke: #cccccc; stroke-linejoin: miter"/>
    </g>
    <g id="text_17">
     <!-- sample -->
     <g transform="translate(697.313879 291.578125)scale(0.1 -0.1)">
      <defs>
       <path id="DejaVuSans-61" d="M 2194 1759 
Q 1497 1759 1228 1600 
Q 959 1441 959 1056 
Q 959 750 1161 570 
Q 1363 391 1709 391 
Q 2188 391 2477 730 
Q 2766 1069 2766 1631 
L 2766 1759 
L 2194 1759 
z
M 3341 1997 
L 3341 0 
L 2766 0 
L 2766 531 
Q 2569 213 2275 61 
Q 1981 -91 1556 -91 
Q 1019 -91 701 211 
Q 384 513 384 1019 
Q 384 1609 779 1909 
Q 1175 2209 1959 2209 
L 2766 2209 
L 2766 2266 
Q 2766 2663 2505 2880 
Q 2244 3097 1772 3097 
Q 1472 3097 1187 3025 
Q 903 2953 641 2809 
L 641 3341 
Q 956 3463 1253 3523 
Q 1550 3584 1831 3584 
Q 2591 3584 2966 3190 
Q 3341 2797 3341 1997 
z
" transform="scale(0.015625)"/>
       <path id="DejaVuSans-70" d="M 1159 525 
L 1159 -1331 
L 581 -1331 
L 581 3500 
L 1159 3500 
L 1159 2969 
Q 1341 3281 1617 3432 
Q 1894 3584 2278 3584 
Q 2916 3584 3314 3078 
Q 3713 2572 3713 1747 
Q 3713 922 3314 415 
Q 2916 -91 2278 -91 
Q 1894 -91 1617 61 
Q 1341 213 1159 525 
z
M 3116 1747 
Q 3116 2381 2855 2742 
Q 2594 3103 2138 3103 
Q 1681 3103 1420 2742 
Q 1159 2381 1159 1747 
Q 1159 1113 1420 752 
Q 1681 391 2138 391 
Q 2594 391 2855 752 
Q 3116 1113 3116 1747 
z
" transform="scale(0.015625)"/>
       <path id="DejaVuSans-6c" d="M 603 4863 
L 1178 4863 
L 1178 0 
L 603 0 
L 603 4863 
z
" transform="scale(0.015625)"/>
      </defs>
      <use xlink:href="#DejaVuSans-73"/>
      <use xlink:href="#DejaVuSans-61" x="52.099609"/>
      <use xlink:href="#DejaVuSans-6d" x="113.378906"/>
      <use xlink:href="#DejaVuSans-70" x="210.791016"/>
      <use xlink:href="#DejaVuSans-6c" x="274.267578"/>
      <use xlink:href="#DejaVuSans-65" x="302.050781"/>
     </g>
    </g>
    <g id="line2d_45">
     <path d="M 677.632629 302.75625 
L 687.632629 302.75625 
L 697.632629 302.75625 
" style="fill: none; stroke: #1f77b4; stroke-width: 1.5; stroke-linecap: square"/>
    </g>
    <g id="text_18">
     <!-- sample_0 -->
     <g transform="translate(705.632629 306.25625)scale(0.1 -0.1)">
      <use xlink:href="#DejaVuSans-73"/>
      <use xlink:href="#DejaVuSans-61" x="52.099609"/>
      <use xlink:href="#DejaVuSans-6d" x="113.378906"/>
      <use xlink:href="#DejaVuSans-70" x="210.791016"/>
      <use xlink:href="#DejaVuSans-6c" x="274.267578"/>
      <use xlink:href="#DejaVuSans-65" x="302.050781"/>
      <use xlink:href="#DejaVuSans-5f" x="363.574219"/>
      <use xlink:href="#DejaVuSans-30" x="413.574219"/>
     </g>
    </g>
    <g id="line2d_46">
     <path d="M 677.632629 317.7125 
L 687.632629 317.7125 
L 697.632629 317.7125 
" style="fill: none; stroke: #ff7f0e; stroke-width: 1.5; stroke-linecap: square"/>
    </g>
    <g id="text_19">
     <!-- sample_1 -->
     <g transform="translate(705.632629 321.2125)scale(0.1 -0.1)">
      <use xlink:href="#DejaVuSans-73"/>
      <use xlink:href="#DejaVuSans-61" x="52.099609"/>
      <use xlink:href="#DejaVuSans-6d" x="113.378906"/>
      <use xlink:href="#DejaVuSans-70" x="210.791016"/>
      <use xlink:href="#DejaVuSans-6c" x="274.267578"/>
      <use xlink:href="#DejaVuSans-65" x="302.050781"/>
      <use xlink:href="#DejaVuSans-5f" x="363.574219"/>
      <use xlink:href="#DejaVuSans-31" x="413.574219"/>
     </g>
    </g>
    <g id="line2d_47">
     <path d="M 677.632629 332.66875 
L 687.632629 332.66875 
L 697.632629 332.66875 
" style="fill: none; stroke: #2ca02c; stroke-width: 1.5; stroke-linecap: square"/>
    </g>
    <g id="text_20">
     <!-- sample_2 -->
     <g transform="translate(705.632629 336.16875)scale(0.1 -0.1)">
      <use xlink:href="#DejaVuSans-73"/>
      <use xlink:href="#DejaVuSans-61" x="52.099609"/>
      <use xlink:href="#DejaVuSans-6d" x="113.378906"/>
      <use xlink:href="#DejaVuSans-70" x="210.791016"/>
      <use xlink:href="#DejaVuSans-6c" x="274.267578"/>
      <use xlink:href="#DejaVuSans-65" x="302.050781"/>
      <use xlink:href="#DejaVuSans-5f" x="363.574219"/>
      <use xlink:href="#DejaVuSans-32" x="413.574219"/>
     </g>
    </g>
    <g id="line2d_48">
     <path d="M 677.632629 347.625 
L 687.632629 347.625 
L 697.632629 347.625 
" style="fill: none; stroke: #d62728; stroke-width: 1.5; stroke-linecap: square"/>
    </g>
    <g id="text_21">
     <!-- sample_3 -->
     <g transform="translate(705.632629 351.125)scale(0.1 -0.1)">
      <use xlink:href="#DejaVuSans-73"/>
      <use xlink:href="#DejaVuSans-61" x="52.099609"/>
      <use xlink:href="#DejaVuSans-6d" x="113.378906"/>
      <use xlink:href="#DejaVuSans-70" x="210.791016"/>
      <use xlink:href="#DejaVuSans-6c" x="274.267578"/>
      <use xlink:href="#DejaVuSans-65" x="302.050781"/>
      <use xlink:href="#DejaVuSans-5f" x="363.574219"/>
      <use xlink:href="#DejaVuSans-33" x="413.574219"/>
     </g>
    </g>
    <g id="line2d_49">
     <path d="M 677.632629 362.58125 
L 687.632629 362.58125 
L 697.632629 362.58125 
" style="fill: none; stroke: #9467bd; stroke-width: 1.5; stroke-linecap: square"/>
    </g>
    <g id="text_22">
     <!-- sample_4 -->
     <g transform="translate(705.632629 366.08125)scale(0.1 -0.1)">
      <use xlink:href="#DejaVuSans-73"/>
      <use xlink:href="#DejaVuSans-61" x="52.099609"/>
      <use xlink:href="#DejaVuSans-6d" x="113.378906"/>
      <use xlink:href="#DejaVuSans-70" x="210.791016"/>
      <use xlink:href="#DejaVuSans-6c" x="274.267578"/>
      <use xlink:href="#DejaVuSans-65" x="302.050781"/>
      <use xlink:href="#DejaVuSans-5f" x="363.574219"/>
      <use xlink:href="#DejaVuSans-34" x="413.574219"/>
     </g>
    </g>
    <g id="line2d_50">
     <path d="M 677.632629 377.5375 
L 687.632629 377.5375 
L 697.632629 377.5375 
" style="fill: none; stroke: #8c564b; stroke-width: 1.5; stroke-linecap: square"/>
    </g>
    <g id="text_23">
     <!-- sample_5 -->
     <g transform="translate(705.632629 381.0375)scale(0.1 -0.1)">
      <use xlink:href="#DejaVuSans-73"/>
      <use xlink:href="#DejaVuSans-61" x="52.099609"/>
      <use xlink:href="#DejaVuSans-6d" x="113.378906"/>
      <use xlink:href="#DejaVuSans-70" x="210.791016"/>
      <use xlink:href="#DejaVuSans-6c" x="274.267578"/>
      <use xlink:href="#DejaVuSans-65" x="302.050781"/>
      <use xlink:href="#DejaVuSans-5f" x="363.574219"/>
      <use xlink:href="#DejaVuSans-35" x="413.574219"/>
     </g>
    </g>
    <g id="line2d_51">
     <path d="M 677.632629 392.49375 
L 687.632629 392.49375 
L 697.632629 392.49375 
" style="fill: none; stroke: #e377c2; stroke-width: 1.5; stroke-linecap: square"/>
    </g>
    <g id="text_24">
     <!-- sample_6 -->
     <g transform="translate(705.632629 395.99375)scale(0.1 -0.1)">
      <use xlink:href="#DejaVuSans-73"/>
      <use xlink:href="#DejaVuSans-61" x="52.099609"/>
      <use xlink:href="#DejaVuSans-6d" x="113.378906"/>
      <use xlink:href="#DejaVuSans-70" x="210.791016"/>
      <use xlink:href="#DejaVuSans-6c" x="274.267578"/>
      <use xlink:href="#DejaVuSans-65" x="302.050781"/>
      <use xlink:href="#DejaVuSans-5f" x="363.574219"/>
      <use xlink:href="#DejaVuSans-36" x="413.574219"/>
     </g>
    </g>
    <g id="line2d_52">
     <path d="M 677.632629 407.45 
L 687.632629 407.45 
L 697.632629 407.45 
" style="fill: none; stroke: #7f7f7f; stroke-width: 1.5; stroke-linecap: square"/>
    </g>
    <g id="text_25">
     <!-- sample_7 -->
     <g transform="translate(705.632629 410.95)scale(0.1 -0.1)">
      <use xlink:href="#DejaVuSans-73"/>
      <use xlink:href="#DejaVuSans-61" x="52.099609"/>
      <use xlink:href="#DejaVuSans-6d" x="113.378906"/>
      <use xlink:href="#DejaVuSans-70" x="210.791016"/>
      <use xlink:href="#DejaVuSans-6c" x="274.267578"/>
      <use xlink:href="#DejaVuSans-65" x="302.050781"/>
      <use xlink:href="#DejaVuSans-5f" x="363.574219"/>
      <use xlink:href="#DejaVuSans-37" x="413.574219"/>
     </g>
    </g>
    <g id="line2d_53">
     <path d="M 677.632629 422.40625 
L 687.632629 422.40625 
L 697.632629 422.40625 
" style="fill: none; stroke: #bcbd22; stroke-width: 1.5; stroke-linecap: square"/>
    </g>
    <g id="text_26">
     <!-- sample_8 -->
     <g transform="translate(705.632629 425.90625)scale(0.1 -0.1)">
      <use xlink:href="#DejaVuSans-73"/>
      <use xlink:href="#DejaVuSans-61" x="52.099609"/>
      <use xlink:href="#DejaVuSans-6d" x="113.378906"/>
      <use xlink:href="#DejaVuSans-70" x="210.791016"/>
      <use xlink:href="#DejaVuSans-6c" x="274.267578"/>
      <use xlink:href="#DejaVuSans-65" x="302.050781"/>
      <use xlink:href="#DejaVuSans-5f" x="363.574219"/>
      <use xlink:href="#DejaVuSans-38" x="413.574219"/>
     </g>
    </g>
    <g id="line2d_54">
     <path d="M 677.632629 437.3625 
L 687.632629 437.3625 
L 697.632629 437.3625 
" style="fill: none; stroke: #17becf; stroke-width: 1.5; stroke-linecap: square"/>
    </g>
    <g id="text_27">
     <!-- sample_9 -->
     <g transform="translate(705.632629 440.8625)scale(0.1 -0.1)">
      <use xlink:href="#DejaVuSans-73"/>
      <use xlink:href="#DejaVuSans-61" x="52.099609"/>
      <use xlink:href="#DejaVuSans-6d" x="113.378906"/>
      <use xlink:href="#DejaVuSans-70" x="210.791016"/>
      <use xlink:href="#DejaVuSans-6c" x="274.267578"/>
      <use xlink:href="#DejaVuSans-65" x="302.050781"/>
      <use xlink:href="#DejaVuSans-5f" x="363.574219"/>
      <use xlink:href="#DejaVuSans-39" x="413.574219"/>
     </g>
    </g>
   </g>
  </g>
  <g id="axes_2">
   <g id="patch_8">
    <path d="M 860.823529 640.8 
L 1353.176471 640.8 
L 1353.176471 86.4 
L 860.823529 86.4 
z
" style="fill: #ffffff"/>
   </g>
   <g id="matplotlib.axis_3">
    <g id="xtick_8">
     <g id="line2d_55">
      <g>
       <use xlink:href="#mf39f50e490" x="875.35069" y="640.8" style="stroke: #000000; stroke-width: 0.8"/>
      </g>
     </g>
     <g id="text_28">
      <!-- 0 -->
      <g transform="translate(872.16944 655.398438)scale(0.1 -0.1)">
       <use xlink:href="#DejaVuSans-30"/>
      </g>
     </g>
    </g>
    <g id="xtick_9">
     <g id="line2d_56">
      <g>
       <use xlink:href="#mf39f50e490" x="953.87588" y="640.8" style="stroke: #000000; stroke-width: 0.8"/>
      </g>
     </g>
     <g id="text_29">
      <!-- 50 -->
      <g transform="translate(947.51338 655.398438)scale(0.1 -0.1)">
       <use xlink:href="#DejaVuSans-35"/>
       <use xlink:href="#DejaVuSans-30" x="63.623047"/>
      </g>
     </g>
    </g>
    <g id="xtick_10">
     <g id="line2d_57">
      <g>
       <use xlink:href="#mf39f50e490" x="1032.40107" y="640.8" style="stroke: #000000; stroke-width: 0.8"/>
      </g>
     </g>
     <g id="text_30">
      <!-- 100 -->
      <g transform="translate(1022.85732 655.398438)scale(0.1 -0.1)">
       <use xlink:href="#DejaVuSans-31"/>
       <use xlink:href="#DejaVuSans-30" x="63.623047"/>
       <use xlink:href="#DejaVuSans-30" x="127.246094"/>
      </g>
     </g>
    </g>
    <g id="xtick_11">
     <g id="line2d_58">
      <g>
       <use xlink:href="#mf39f50e490" x="1110.926259" y="640.8" style="stroke: #000000; stroke-width: 0.8"/>
      </g>
     </g>
     <g id="text_31">
      <!-- 150 -->
      <g transform="translate(1101.382509 655.398438)scale(0.1 -0.1)">
       <use xlink:href="#DejaVuSans-31"/>
       <use xlink:href="#DejaVuSans-35" x="63.623047"/>
       <use xlink:href="#DejaVuSans-30" x="127.246094"/>
      </g>
     </g>
    </g>
    <g id="xtick_12">
     <g id="line2d_59">
      <g>
       <use xlink:href="#mf39f50e490" x="1189.451449" y="640.8" style="stroke: #000000; stroke-width: 0.8"/>
      </g>
     </g>
     <g id="text_32">
      <!-- 200 -->
      <g transform="translate(1179.907699 655.398438)scale(0.1 -0.1)">
       <use xlink:href="#DejaVuSans-32"/>
       <use xlink:href="#DejaVuSans-30" x="63.623047"/>
       <use xlink:href="#DejaVuSans-30" x="127.246094"/>
      </g>
     </g>
    </g>
    <g id="xtick_13">
     <g id="line2d_60">
      <g>
       <use xlink:href="#mf39f50e490" x="1267.976639" y="640.8" style="stroke: #000000; stroke-width: 0.8"/>
      </g>
     </g>
     <g id="text_33">
      <!-- 250 -->
      <g transform="translate(1258.432889 655.398438)scale(0.1 -0.1)">
       <use xlink:href="#DejaVuSans-32"/>
       <use xlink:href="#DejaVuSans-35" x="63.623047"/>
       <use xlink:href="#DejaVuSans-30" x="127.246094"/>
      </g>
     </g>
    </g>
    <g id="xtick_14">
     <g id="line2d_61">
      <g>
       <use xlink:href="#mf39f50e490" x="1346.501829" y="640.8" style="stroke: #000000; stroke-width: 0.8"/>
      </g>
     </g>
     <g id="text_34">
      <!-- 300 -->
      <g transform="translate(1336.958079 655.398438)scale(0.1 -0.1)">
       <use xlink:href="#DejaVuSans-33"/>
       <use xlink:href="#DejaVuSans-30" x="63.623047"/>
       <use xlink:href="#DejaVuSans-30" x="127.246094"/>
      </g>
     </g>
    </g>
    <g id="text_35">
     <!-- num_segments -->
     <g transform="translate(1068.75625 668.798437)scale(0.1 -0.1)">
      <use xlink:href="#DejaVuSans-6e"/>
      <use xlink:href="#DejaVuSans-75" x="63.378906"/>
      <use xlink:href="#DejaVuSans-6d" x="126.757812"/>
      <use xlink:href="#DejaVuSans-5f" x="224.169922"/>
      <use xlink:href="#DejaVuSans-73" x="274.169922"/>
      <use xlink:href="#DejaVuSans-65" x="326.269531"/>
      <use xlink:href="#DejaVuSans-67" x="387.792969"/>
      <use xlink:href="#DejaVuSans-6d" x="451.269531"/>
      <use xlink:href="#DejaVuSans-65" x="548.681641"/>
      <use xlink:href="#DejaVuSans-6e" x="610.205078"/>
      <use xlink:href="#DejaVuSans-74" x="673.583984"/>
      <use xlink:href="#DejaVuSans-73" x="712.792969"/>
     </g>
    </g>
   </g>
   <g id="matplotlib.axis_4">
    <g id="ytick_8">
     <g id="line2d_62">
      <g>
       <use xlink:href="#mb3d762feae" x="860.823529" y="615.608815" style="stroke: #000000; stroke-width: 0.8"/>
      </g>
     </g>
     <g id="text_36">
      <!-- 0.0 -->
      <g transform="translate(837.920404 619.408034)scale(0.1 -0.1)">
       <use xlink:href="#DejaVuSans-30"/>
       <use xlink:href="#DejaVuSans-2e" x="63.623047"/>
       <use xlink:href="#DejaVuSans-30" x="95.410156"/>
      </g>
     </g>
    </g>
    <g id="ytick_9">
     <g id="line2d_63">
      <g>
       <use xlink:href="#mb3d762feae" x="860.823529" y="532.293648" style="stroke: #000000; stroke-width: 0.8"/>
      </g>
     </g>
     <g id="text_37">
      <!-- 0.2 -->
      <g transform="translate(837.920404 536.092866)scale(0.1 -0.1)">
       <use xlink:href="#DejaVuSans-30"/>
       <use xlink:href="#DejaVuSans-2e" x="63.623047"/>
       <use xlink:href="#DejaVuSans-32" x="95.410156"/>
      </g>
     </g>
    </g>
    <g id="ytick_10">
     <g id="line2d_64">
      <g>
       <use xlink:href="#mb3d762feae" x="860.823529" y="448.97848" style="stroke: #000000; stroke-width: 0.8"/>
      </g>
     </g>
     <g id="text_38">
      <!-- 0.4 -->
      <g transform="translate(837.920404 452.777699)scale(0.1 -0.1)">
       <use xlink:href="#DejaVuSans-30"/>
       <use xlink:href="#DejaVuSans-2e" x="63.623047"/>
       <use xlink:href="#DejaVuSans-34" x="95.410156"/>
      </g>
     </g>
    </g>
    <g id="ytick_11">
     <g id="line2d_65">
      <g>
       <use xlink:href="#mb3d762feae" x="860.823529" y="365.663313" style="stroke: #000000; stroke-width: 0.8"/>
      </g>
     </g>
     <g id="text_39">
      <!-- 0.6 -->
      <g transform="translate(837.920404 369.462531)scale(0.1 -0.1)">
       <use xlink:href="#DejaVuSans-30"/>
       <use xlink:href="#DejaVuSans-2e" x="63.623047"/>
       <use xlink:href="#DejaVuSans-36" x="95.410156"/>
      </g>
     </g>
    </g>
    <g id="ytick_12">
     <g id="line2d_66">
      <g>
       <use xlink:href="#mb3d762feae" x="860.823529" y="282.348145" style="stroke: #000000; stroke-width: 0.8"/>
      </g>
     </g>
     <g id="text_40">
      <!-- 0.8 -->
      <g transform="translate(837.920404 286.147364)scale(0.1 -0.1)">
       <use xlink:href="#DejaVuSans-30"/>
       <use xlink:href="#DejaVuSans-2e" x="63.623047"/>
       <use xlink:href="#DejaVuSans-38" x="95.410156"/>
      </g>
     </g>
    </g>
    <g id="ytick_13">
     <g id="line2d_67">
      <g>
       <use xlink:href="#mb3d762feae" x="860.823529" y="199.032978" style="stroke: #000000; stroke-width: 0.8"/>
      </g>
     </g>
     <g id="text_41">
      <!-- 1.0 -->
      <g transform="translate(837.920404 202.832196)scale(0.1 -0.1)">
       <use xlink:href="#DejaVuSans-31"/>
       <use xlink:href="#DejaVuSans-2e" x="63.623047"/>
       <use xlink:href="#DejaVuSans-30" x="95.410156"/>
      </g>
     </g>
    </g>
    <g id="ytick_14">
     <g id="line2d_68">
      <g>
       <use xlink:href="#mb3d762feae" x="860.823529" y="115.71781" style="stroke: #000000; stroke-width: 0.8"/>
      </g>
     </g>
     <g id="text_42">
      <!-- 1.2 -->
      <g transform="translate(837.920404 119.517029)scale(0.1 -0.1)">
       <use xlink:href="#DejaVuSans-31"/>
       <use xlink:href="#DejaVuSans-2e" x="63.623047"/>
       <use xlink:href="#DejaVuSans-32" x="95.410156"/>
      </g>
     </g>
    </g>
    <g id="text_43">
     <!-- tau -->
     <g transform="translate(831.840717 371.792969)rotate(-90)scale(0.1 -0.1)">
      <use xlink:href="#DejaVuSans-74"/>
      <use xlink:href="#DejaVuSans-61" x="39.208984"/>
      <use xlink:href="#DejaVuSans-75" x="100.488281"/>
     </g>
    </g>
   </g>
   <g id="line2d_69">
    <path d="M 883.203209 479.034331 
L 884.773712 514.078765 
L 887.91472 553.523457 
L 889.485224 570.968889 
L 891.055728 579.832397 
L 892.626231 586.755774 
L 894.196735 591.214175 
L 897.337743 597.513707 
L 898.908247 599.90639 
L 900.47875 601.995905 
L 903.619758 604.866531 
L 906.760766 607.257656 
L 911.472277 609.38205 
L 916.183788 611.318529 
L 917.754292 611.766293 
L 922.465804 612.548163 
L 927.177315 613.147665 
L 933.45933 613.729377 
L 944.452857 614.427878 
L 957.016887 614.861234 
L 971.151421 615.124374 
L 1000.990994 615.384406 
L 1054.388123 615.523094 
L 1128.201801 615.581364 
L 1128.201801 615.581364 
" clip-path="url(#pc771fccdce)" style="fill: none; stroke: #1f77b4; stroke-width: 1.5; stroke-linecap: square"/>
   </g>
   <g id="line2d_70">
    <path d="M 883.203209 587.042328 
L 884.773712 597.578171 
L 886.344216 602.593479 
L 889.485224 607.220721 
L 891.055728 609.2156 
L 892.626231 610.400073 
L 895.767239 612.015985 
L 898.908247 612.901297 
L 903.619758 613.646902 
L 908.331269 614.209913 
L 913.042781 614.549151 
L 924.036307 614.951423 
L 939.741345 615.266503 
L 963.298902 615.43963 
L 1011.98452 615.555204 
L 1137.624824 615.6 
L 1137.624824 615.6 
" clip-path="url(#pc771fccdce)" style="fill: none; stroke: #ff7f0e; stroke-width: 1.5; stroke-linecap: square"/>
   </g>
   <g id="line2d_71">
    <path d="M 883.203209 492.139023 
L 884.773712 520.736397 
L 886.344216 545.245646 
L 887.91472 559.452718 
L 889.485224 569.107633 
L 891.055728 578.059536 
L 892.626231 585.764497 
L 895.767239 594.547928 
L 898.908247 601.608519 
L 900.47875 603.149728 
L 902.049254 604.515223 
L 905.190262 606.803814 
L 906.760766 607.771047 
L 909.901773 609.317829 
L 913.042781 610.353833 
L 916.183788 611.219331 
L 922.465804 612.490098 
L 927.177315 613.225407 
L 933.45933 613.902556 
L 939.741345 614.284067 
L 949.164368 614.602496 
L 969.580918 615.061448 
L 988.426963 615.267059 
L 1033.971573 615.465935 
L 1123.49029 615.565035 
L 1126.631297 615.566667 
L 1126.631297 615.566667 
" clip-path="url(#pc771fccdce)" style="fill: none; stroke: #2ca02c; stroke-width: 1.5; stroke-linecap: square"/>
   </g>
   <g id="line2d_72">
    <path d="M 883.203209 581.034319 
L 886.344216 597.065403 
L 887.91472 600.518483 
L 889.485224 603.536489 
L 892.626231 607.150686 
L 894.196735 608.815731 
L 897.337743 610.289225 
L 900.47875 611.510713 
L 903.619758 612.557137 
L 906.760766 613.372301 
L 908.331269 613.691686 
L 911.472277 614.036384 
L 917.754292 614.485341 
L 925.606811 614.898291 
L 936.600338 615.21127 
L 957.016887 615.412478 
L 994.708978 615.5345 
L 1101.503237 615.596026 
L 1101.503237 615.596026 
" clip-path="url(#pc771fccdce)" style="fill: none; stroke: #d62728; stroke-width: 1.5; stroke-linecap: square"/>
   </g>
   <g id="line2d_73">
    <path d="M 883.203209 464.235763 
L 884.773712 509.383862 
L 886.344216 535.123611 
L 887.91472 556.003842 
L 889.485224 567.249078 
L 892.626231 582.805593 
L 894.196735 588.448461 
L 895.767239 592.440484 
L 897.337743 595.991263 
L 900.47875 600.718324 
L 902.049254 602.554594 
L 905.190262 605.194608 
L 906.760766 606.29576 
L 909.901773 607.975719 
L 913.042781 609.404495 
L 916.183788 610.287508 
L 919.324796 611.016545 
L 925.606811 612.000264 
L 935.029834 613.112508 
L 944.452857 613.981821 
L 950.734872 614.321809 
L 964.869406 614.750389 
L 983.715452 615.081959 
L 1015.125528 615.339016 
L 1059.099634 615.499631 
L 1159.611877 615.579828 
L 1159.611877 615.579828 
" clip-path="url(#pc771fccdce)" style="fill: none; stroke: #9467bd; stroke-width: 1.5; stroke-linecap: square"/>
   </g>
   <g id="line2d_74">
    <path d="M 883.203209 546.791942 
L 884.773712 562.822186 
L 886.344216 577.188756 
L 887.91472 584.534129 
L 891.055728 593.19439 
L 892.626231 597.104015 
L 894.196735 600.696005 
L 895.767239 603.84467 
L 897.337743 605.376394 
L 902.049254 608.518432 
L 905.190262 609.915489 
L 909.901773 611.552249 
L 913.042781 612.53893 
L 914.613285 612.951765 
L 920.8953 613.802264 
L 925.606811 614.180478 
L 938.170842 614.770739 
L 949.164368 615.04534 
L 969.580918 615.274862 
L 1005.702505 615.467425 
L 1071.663665 615.561862 
L 1161.182381 615.593391 
L 1161.182381 615.593391 
" clip-path="url(#pc771fccdce)" style="fill: none; stroke: #8c564b; stroke-width: 1.5; stroke-linecap: square"/>
   </g>
   <g id="line2d_75">
    <path d="M 883.203209 111.6 
L 884.773712 253.844449 
L 886.344216 366.105015 
L 887.91472 433.235876 
L 889.485224 463.44984 
L 891.055728 485.205245 
L 894.196735 523.408945 
L 897.337743 549.81934 
L 898.908247 559.427198 
L 900.47875 565.485633 
L 902.049254 570.612743 
L 905.190262 579.70316 
L 906.760766 583.178904 
L 908.331269 586.208337 
L 913.042781 592.957155 
L 916.183788 597.066735 
L 919.324796 600.070603 
L 922.465804 602.263539 
L 925.606811 604.131808 
L 928.747819 605.780918 
L 933.45933 607.756789 
L 936.600338 608.693182 
L 941.311849 609.765885 
L 946.023361 610.682036 
L 950.734872 611.403937 
L 957.016887 612.176959 
L 964.869406 612.856698 
L 972.721925 613.340958 
L 988.426963 614.015728 
L 1005.702505 614.488116 
L 1030.830566 614.921594 
L 1063.811146 615.21204 
L 1125.060794 615.436439 
L 1228.714044 615.552046 
L 1330.796791 615.585724 
L 1330.796791 615.585724 
" clip-path="url(#pc771fccdce)" style="fill: none; stroke: #e377c2; stroke-width: 1.5; stroke-linecap: square"/>
   </g>
   <g id="line2d_76">
    <path d="M 883.203209 426.086628 
L 884.773712 476.746466 
L 886.344216 505.152784 
L 887.91472 527.891873 
L 891.055728 557.234485 
L 892.626231 567.101811 
L 895.767239 581.498839 
L 898.908247 591.748847 
L 900.47875 594.592728 
L 902.049254 596.786047 
L 905.190262 600.585875 
L 906.760766 602.176021 
L 908.331269 603.512324 
L 911.472277 605.806667 
L 914.613285 607.611687 
L 917.754292 608.839108 
L 920.8953 609.875423 
L 927.177315 611.343324 
L 931.888826 612.23423 
L 936.600338 612.773879 
L 944.452857 613.447175 
L 955.446383 614.091748 
L 966.43991 614.488073 
L 986.856459 614.916314 
L 1011.98452 615.199174 
L 1057.52913 615.41381 
L 1145.477343 615.546642 
L 1187.880946 615.570372 
L 1187.880946 615.570372 
" clip-path="url(#pc771fccdce)" style="fill: none; stroke: #7f7f7f; stroke-width: 1.5; stroke-linecap: square"/>
   </g>
   <g id="line2d_77">
    <path d="M 883.203209 375.989308 
L 884.773712 439.782949 
L 886.344216 479.022859 
L 887.91472 508.495631 
L 889.485224 533.812631 
L 891.055728 551.217688 
L 892.626231 564.089477 
L 894.196735 571.374305 
L 895.767239 577.880557 
L 897.337743 583.247706 
L 898.908247 587.594307 
L 902.049254 595.252728 
L 903.619758 598.459132 
L 905.190262 601.004876 
L 906.760766 602.679242 
L 908.331269 604.067037 
L 909.901773 605.213088 
L 914.613285 607.806053 
L 917.754292 608.965907 
L 925.606811 611.274579 
L 930.318323 612.226944 
L 939.741345 613.195791 
L 950.734872 613.976625 
L 960.157895 614.451352 
L 971.151421 614.760933 
L 999.42049 615.159696 
L 1032.40107 615.36914 
L 1101.503237 615.528828 
L 1219.291022 615.587162 
L 1219.291022 615.587162 
" clip-path="url(#pc771fccdce)" style="fill: none; stroke: #bcbd22; stroke-width: 1.5; stroke-linecap: square"/>
   </g>
   <g id="line2d_78">
    <path d="M 883.203209 499.281461 
L 884.773712 531.945576 
L 886.344216 554.426059 
L 887.91472 565.910884 
L 891.055728 585.791632 
L 892.626231 594.15196 
L 894.196735 597.033434 
L 897.337743 601.510463 
L 898.908247 603.368529 
L 902.049254 606.575016 
L 903.619758 607.703809 
L 905.190262 608.660141 
L 906.760766 609.467133 
L 911.472277 611.142315 
L 914.613285 611.995642 
L 916.183788 612.367368 
L 922.465804 613.215258 
L 927.177315 613.681113 
L 938.170842 614.340459 
L 949.164368 614.764953 
L 961.728399 615.08215 
L 982.144948 615.309564 
L 1027.689558 615.492036 
L 1101.503237 615.572772 
L 1101.503237 615.572772 
" clip-path="url(#pc771fccdce)" style="fill: none; stroke: #17becf; stroke-width: 1.5; stroke-linecap: square"/>
   </g>
   <g id="line2d_79"/>
   <g id="line2d_80"/>
   <g id="line2d_81"/>
   <g id="line2d_82"/>
   <g id="line2d_83"/>
   <g id="line2d_84"/>
   <g id="line2d_85"/>
   <g id="line2d_86"/>
   <g id="line2d_87"/>
   <g id="line2d_88"/>
   <g id="line2d_89">
    <path d="M 860.823529 615.608815 
L 1353.176471 615.608815 
" clip-path="url(#pc771fccdce)" style="fill: none; stroke-dasharray: 5.55,2.4; stroke-dashoffset: 0; stroke: #000000; stroke-width: 1.5"/>
   </g>
   <g id="patch_9">
    <path d="M 860.823529 640.8 
L 860.823529 86.4 
" style="fill: none; stroke: #000000; stroke-width: 0.8; stroke-linejoin: miter; stroke-linecap: square"/>
   </g>
   <g id="patch_10">
    <path d="M 1353.176471 640.8 
L 1353.176471 86.4 
" style="fill: none; stroke: #000000; stroke-width: 0.8; stroke-linejoin: miter; stroke-linecap: square"/>
   </g>
   <g id="patch_11">
    <path d="M 860.823529 640.8 
L 1353.176471 640.8 
" style="fill: none; stroke: #000000; stroke-width: 0.8; stroke-linejoin: miter; stroke-linecap: square"/>
   </g>
   <g id="patch_12">
    <path d="M 860.823529 86.4 
L 1353.176471 86.4 
" style="fill: none; stroke: #000000; stroke-width: 0.8; stroke-linejoin: miter; stroke-linecap: square"/>
   </g>
   <g id="legend_2">
    <g id="patch_13">
     <path d="M 1266.456158 258.640625 
L 1346.176471 258.640625 
Q 1348.176471 258.640625 1348.176471 256.640625 
L 1348.176471 93.4 
Q 1348.176471 91.4 1346.176471 91.4 
L 1266.456158 91.4 
Q 1264.456158 91.4 1264.456158 93.4 
L 1264.456158 256.640625 
Q 1264.456158 258.640625 1266.456158 258.640625 
z
" style="fill: #ffffff; opacity: 0.8; stroke: #cccccc; stroke-linejoin: miter"/>
    </g>
    <g id="text_44">
     <!-- sample -->
     <g transform="translate(1288.137408 102.998437)scale(0.1 -0.1)">
      <use xlink:href="#DejaVuSans-73"/>
      <use xlink:href="#DejaVuSans-61" x="52.099609"/>
      <use xlink:href="#DejaVuSans-6d" x="113.378906"/>
      <use xlink:href="#DejaVuSans-70" x="210.791016"/>
      <use xlink:href="#DejaVuSans-6c" x="274.267578"/>
      <use xlink:href="#DejaVuSans-65" x="302.050781"/>
     </g>
    </g>
    <g id="line2d_90">
     <path d="M 1268.456158 114.176562 
L 1278.456158 114.176562 
L 1288.456158 114.176562 
" style="fill: none; stroke: #1f77b4; stroke-width: 1.5; stroke-linecap: square"/>
    </g>
    <g id="text_45">
     <!-- sample_0 -->
     <g transform="translate(1296.456158 117.676562)scale(0.1 -0.1)">
      <use xlink:href="#DejaVuSans-73"/>
      <use xlink:href="#DejaVuSans-61" x="52.099609"/>
      <use xlink:href="#DejaVuSans-6d" x="113.378906"/>
      <use xlink:href="#DejaVuSans-70" x="210.791016"/>
      <use xlink:href="#DejaVuSans-6c" x="274.267578"/>
      <use xlink:href="#DejaVuSans-65" x="302.050781"/>
      <use xlink:href="#DejaVuSans-5f" x="363.574219"/>
      <use xlink:href="#DejaVuSans-30" x="413.574219"/>
     </g>
    </g>
    <g id="line2d_91">
     <path d="M 1268.456158 129.132812 
L 1278.456158 129.132812 
L 1288.456158 129.132812 
" style="fill: none; stroke: #ff7f0e; stroke-width: 1.5; stroke-linecap: square"/>
    </g>
    <g id="text_46">
     <!-- sample_1 -->
     <g transform="translate(1296.456158 132.632812)scale(0.1 -0.1)">
      <use xlink:href="#DejaVuSans-73"/>
      <use xlink:href="#DejaVuSans-61" x="52.099609"/>
      <use xlink:href="#DejaVuSans-6d" x="113.378906"/>
      <use xlink:href="#DejaVuSans-70" x="210.791016"/>
      <use xlink:href="#DejaVuSans-6c" x="274.267578"/>
      <use xlink:href="#DejaVuSans-65" x="302.050781"/>
      <use xlink:href="#DejaVuSans-5f" x="363.574219"/>
      <use xlink:href="#DejaVuSans-31" x="413.574219"/>
     </g>
    </g>
    <g id="line2d_92">
     <path d="M 1268.456158 144.089062 
L 1278.456158 144.089062 
L 1288.456158 144.089062 
" style="fill: none; stroke: #2ca02c; stroke-width: 1.5; stroke-linecap: square"/>
    </g>
    <g id="text_47">
     <!-- sample_2 -->
     <g transform="translate(1296.456158 147.589062)scale(0.1 -0.1)">
      <use xlink:href="#DejaVuSans-73"/>
      <use xlink:href="#DejaVuSans-61" x="52.099609"/>
      <use xlink:href="#DejaVuSans-6d" x="113.378906"/>
      <use xlink:href="#DejaVuSans-70" x="210.791016"/>
      <use xlink:href="#DejaVuSans-6c" x="274.267578"/>
      <use xlink:href="#DejaVuSans-65" x="302.050781"/>
      <use xlink:href="#DejaVuSans-5f" x="363.574219"/>
      <use xlink:href="#DejaVuSans-32" x="413.574219"/>
     </g>
    </g>
    <g id="line2d_93">
     <path d="M 1268.456158 159.045312 
L 1278.456158 159.045312 
L 1288.456158 159.045312 
" style="fill: none; stroke: #d62728; stroke-width: 1.5; stroke-linecap: square"/>
    </g>
    <g id="text_48">
     <!-- sample_3 -->
     <g transform="translate(1296.456158 162.545312)scale(0.1 -0.1)">
      <use xlink:href="#DejaVuSans-73"/>
      <use xlink:href="#DejaVuSans-61" x="52.099609"/>
      <use xlink:href="#DejaVuSans-6d" x="113.378906"/>
      <use xlink:href="#DejaVuSans-70" x="210.791016"/>
      <use xlink:href="#DejaVuSans-6c" x="274.267578"/>
      <use xlink:href="#DejaVuSans-65" x="302.050781"/>
      <use xlink:href="#DejaVuSans-5f" x="363.574219"/>
      <use xlink:href="#DejaVuSans-33" x="413.574219"/>
     </g>
    </g>
    <g id="line2d_94">
     <path d="M 1268.456158 174.001562 
L 1278.456158 174.001562 
L 1288.456158 174.001562 
" style="fill: none; stroke: #9467bd; stroke-width: 1.5; stroke-linecap: square"/>
    </g>
    <g id="text_49">
     <!-- sample_4 -->
     <g transform="translate(1296.456158 177.501562)scale(0.1 -0.1)">
      <use xlink:href="#DejaVuSans-73"/>
      <use xlink:href="#DejaVuSans-61" x="52.099609"/>
      <use xlink:href="#DejaVuSans-6d" x="113.378906"/>
      <use xlink:href="#DejaVuSans-70" x="210.791016"/>
      <use xlink:href="#DejaVuSans-6c" x="274.267578"/>
      <use xlink:href="#DejaVuSans-65" x="302.050781"/>
      <use xlink:href="#DejaVuSans-5f" x="363.574219"/>
      <use xlink:href="#DejaVuSans-34" x="413.574219"/>
     </g>
    </g>
    <g id="line2d_95">
     <path d="M 1268.456158 188.957812 
L 1278.456158 188.957812 
L 1288.456158 188.957812 
" style="fill: none; stroke: #8c564b; stroke-width: 1.5; stroke-linecap: square"/>
    </g>
    <g id="text_50">
     <!-- sample_5 -->
     <g transform="translate(1296.456158 192.457812)scale(0.1 -0.1)">
      <use xlink:href="#DejaVuSans-73"/>
      <use xlink:href="#DejaVuSans-61" x="52.099609"/>
      <use xlink:href="#DejaVuSans-6d" x="113.378906"/>
      <use xlink:href="#DejaVuSans-70" x="210.791016"/>
      <use xlink:href="#DejaVuSans-6c" x="274.267578"/>
      <use xlink:href="#DejaVuSans-65" x="302.050781"/>
      <use xlink:href="#DejaVuSans-5f" x="363.574219"/>
      <use xlink:href="#DejaVuSans-35" x="413.574219"/>
     </g>
    </g>
    <g id="line2d_96">
     <path d="M 1268.456158 203.914062 
L 1278.456158 203.914062 
L 1288.456158 203.914062 
" style="fill: none; stroke: #e377c2; stroke-width: 1.5; stroke-linecap: square"/>
    </g>
    <g id="text_51">
     <!-- sample_6 -->
     <g transform="translate(1296.456158 207.414062)scale(0.1 -0.1)">
      <use xlink:href="#DejaVuSans-73"/>
      <use xlink:href="#DejaVuSans-61" x="52.099609"/>
      <use xlink:href="#DejaVuSans-6d" x="113.378906"/>
      <use xlink:href="#DejaVuSans-70" x="210.791016"/>
      <use xlink:href="#DejaVuSans-6c" x="274.267578"/>
      <use xlink:href="#DejaVuSans-65" x="302.050781"/>
      <use xlink:href="#DejaVuSans-5f" x="363.574219"/>
      <use xlink:href="#DejaVuSans-36" x="413.574219"/>
     </g>
    </g>
    <g id="line2d_97">
     <path d="M 1268.456158 218.870312 
L 1278.456158 218.870312 
L 1288.456158 218.870312 
" style="fill: none; stroke: #7f7f7f; stroke-width: 1.5; stroke-linecap: square"/>
    </g>
    <g id="text_52">
     <!-- sample_7 -->
     <g transform="translate(1296.456158 222.370312)scale(0.1 -0.1)">
      <use xlink:href="#DejaVuSans-73"/>
      <use xlink:href="#DejaVuSans-61" x="52.099609"/>
      <use xlink:href="#DejaVuSans-6d" x="113.378906"/>
      <use xlink:href="#DejaVuSans-70" x="210.791016"/>
      <use xlink:href="#DejaVuSans-6c" x="274.267578"/>
      <use xlink:href="#DejaVuSans-65" x="302.050781"/>
      <use xlink:href="#DejaVuSans-5f" x="363.574219"/>
      <use xlink:href="#DejaVuSans-37" x="413.574219"/>
     </g>
    </g>
    <g id="line2d_98">
     <path d="M 1268.456158 233.826562 
L 1278.456158 233.826562 
L 1288.456158 233.826562 
" style="fill: none; stroke: #bcbd22; stroke-width: 1.5; stroke-linecap: square"/>
    </g>
    <g id="text_53">
     <!-- sample_8 -->
     <g transform="translate(1296.456158 237.326562)scale(0.1 -0.1)">
      <use xlink:href="#DejaVuSans-73"/>
      <use xlink:href="#DejaVuSans-61" x="52.099609"/>
      <use xlink:href="#DejaVuSans-6d" x="113.378906"/>
      <use xlink:href="#DejaVuSans-70" x="210.791016"/>
      <use xlink:href="#DejaVuSans-6c" x="274.267578"/>
      <use xlink:href="#DejaVuSans-65" x="302.050781"/>
      <use xlink:href="#DejaVuSans-5f" x="363.574219"/>
      <use xlink:href="#DejaVuSans-38" x="413.574219"/>
     </g>
    </g>
    <g id="line2d_99">
     <path d="M 1268.456158 248.782812 
L 1278.456158 248.782812 
L 1288.456158 248.782812 
" style="fill: none; stroke: #17becf; stroke-width: 1.5; stroke-linecap: square"/>
    </g>
    <g id="text_54">
     <!-- sample_9 -->
     <g transform="translate(1296.456158 252.282812)scale(0.1 -0.1)">
      <use xlink:href="#DejaVuSans-73"/>
      <use xlink:href="#DejaVuSans-61" x="52.099609"/>
      <use xlink:href="#DejaVuSans-6d" x="113.378906"/>
      <use xlink:href="#DejaVuSans-70" x="210.791016"/>
      <use xlink:href="#DejaVuSans-6c" x="274.267578"/>
      <use xlink:href="#DejaVuSans-65" x="302.050781"/>
      <use xlink:href="#DejaVuSans-5f" x="363.574219"/>
      <use xlink:href="#DejaVuSans-39" x="413.574219"/>
     </g>
    </g>
   </g>
  </g>
  <g id="axes_3">
   <g id="patch_14">
    <path d="M 1451.647059 640.8 
L 1944 640.8 
L 1944 86.4 
L 1451.647059 86.4 
z
" style="fill: #ffffff"/>
   </g>
   <g id="matplotlib.axis_5">
    <g id="xtick_15">
     <g id="line2d_100">
      <g>
       <use xlink:href="#mf39f50e490" x="1466.174219" y="640.8" style="stroke: #000000; stroke-width: 0.8"/>
      </g>
     </g>
     <g id="text_55">
      <!-- 0 -->
      <g transform="translate(1462.992969 655.398438)scale(0.1 -0.1)">
       <use xlink:href="#DejaVuSans-30"/>
      </g>
     </g>
    </g>
    <g id="xtick_16">
     <g id="line2d_101">
      <g>
       <use xlink:href="#mf39f50e490" x="1544.699409" y="640.8" style="stroke: #000000; stroke-width: 0.8"/>
      </g>
     </g>
     <g id="text_56">
      <!-- 50 -->
      <g transform="translate(1538.336909 655.398438)scale(0.1 -0.1)">
       <use xlink:href="#DejaVuSans-35"/>
       <use xlink:href="#DejaVuSans-30" x="63.623047"/>
      </g>
     </g>
    </g>
    <g id="xtick_17">
     <g id="line2d_102">
      <g>
       <use xlink:href="#mf39f50e490" x="1623.224599" y="640.8" style="stroke: #000000; stroke-width: 0.8"/>
      </g>
     </g>
     <g id="text_57">
      <!-- 100 -->
      <g transform="translate(1613.680849 655.398438)scale(0.1 -0.1)">
       <use xlink:href="#DejaVuSans-31"/>
       <use xlink:href="#DejaVuSans-30" x="63.623047"/>
       <use xlink:href="#DejaVuSans-30" x="127.246094"/>
      </g>
     </g>
    </g>
    <g id="xtick_18">
     <g id="line2d_103">
      <g>
       <use xlink:href="#mf39f50e490" x="1701.749789" y="640.8" style="stroke: #000000; stroke-width: 0.8"/>
      </g>
     </g>
     <g id="text_58">
      <!-- 150 -->
      <g transform="translate(1692.206039 655.398438)scale(0.1 -0.1)">
       <use xlink:href="#DejaVuSans-31"/>
       <use xlink:href="#DejaVuSans-35" x="63.623047"/>
       <use xlink:href="#DejaVuSans-30" x="127.246094"/>
      </g>
     </g>
    </g>
    <g id="xtick_19">
     <g id="line2d_104">
      <g>
       <use xlink:href="#mf39f50e490" x="1780.274979" y="640.8" style="stroke: #000000; stroke-width: 0.8"/>
      </g>
     </g>
     <g id="text_59">
      <!-- 200 -->
      <g transform="translate(1770.731229 655.398438)scale(0.1 -0.1)">
       <use xlink:href="#DejaVuSans-32"/>
       <use xlink:href="#DejaVuSans-30" x="63.623047"/>
       <use xlink:href="#DejaVuSans-30" x="127.246094"/>
      </g>
     </g>
    </g>
    <g id="xtick_20">
     <g id="line2d_105">
      <g>
       <use xlink:href="#mf39f50e490" x="1858.800169" y="640.8" style="stroke: #000000; stroke-width: 0.8"/>
      </g>
     </g>
     <g id="text_60">
      <!-- 250 -->
      <g transform="translate(1849.256419 655.398438)scale(0.1 -0.1)">
       <use xlink:href="#DejaVuSans-32"/>
       <use xlink:href="#DejaVuSans-35" x="63.623047"/>
       <use xlink:href="#DejaVuSans-30" x="127.246094"/>
      </g>
     </g>
    </g>
    <g id="xtick_21">
     <g id="line2d_106">
      <g>
       <use xlink:href="#mf39f50e490" x="1937.325359" y="640.8" style="stroke: #000000; stroke-width: 0.8"/>
      </g>
     </g>
     <g id="text_61">
      <!-- 300 -->
      <g transform="translate(1927.781609 655.398438)scale(0.1 -0.1)">
       <use xlink:href="#DejaVuSans-33"/>
       <use xlink:href="#DejaVuSans-30" x="63.623047"/>
       <use xlink:href="#DejaVuSans-30" x="127.246094"/>
      </g>
     </g>
    </g>
    <g id="text_62">
     <!-- num_segments -->
     <g transform="translate(1659.579779 668.798437)scale(0.1 -0.1)">
      <use xlink:href="#DejaVuSans-6e"/>
      <use xlink:href="#DejaVuSans-75" x="63.378906"/>
      <use xlink:href="#DejaVuSans-6d" x="126.757812"/>
      <use xlink:href="#DejaVuSans-5f" x="224.169922"/>
      <use xlink:href="#DejaVuSans-73" x="274.169922"/>
      <use xlink:href="#DejaVuSans-65" x="326.269531"/>
      <use xlink:href="#DejaVuSans-67" x="387.792969"/>
      <use xlink:href="#DejaVuSans-6d" x="451.269531"/>
      <use xlink:href="#DejaVuSans-65" x="548.681641"/>
      <use xlink:href="#DejaVuSans-6e" x="610.205078"/>
      <use xlink:href="#DejaVuSans-74" x="673.583984"/>
      <use xlink:href="#DejaVuSans-73" x="712.792969"/>
     </g>
    </g>
   </g>
   <g id="matplotlib.axis_6">
    <g id="ytick_15">
     <g id="line2d_107">
      <g>
       <use xlink:href="#mb3d762feae" x="1451.647059" y="615.6" style="stroke: #000000; stroke-width: 0.8"/>
      </g>
     </g>
     <g id="text_63">
      <!-- 0.0 -->
      <g transform="translate(1428.743934 619.399219)scale(0.1 -0.1)">
       <use xlink:href="#DejaVuSans-30"/>
       <use xlink:href="#DejaVuSans-2e" x="63.623047"/>
       <use xlink:href="#DejaVuSans-30" x="95.410156"/>
      </g>
     </g>
    </g>
    <g id="ytick_16">
     <g id="line2d_108">
      <g>
       <use xlink:href="#mb3d762feae" x="1451.647059" y="508.570183" style="stroke: #000000; stroke-width: 0.8"/>
      </g>
     </g>
     <g id="text_64">
      <!-- 0.2 -->
      <g transform="translate(1428.743934 512.369402)scale(0.1 -0.1)">
       <use xlink:href="#DejaVuSans-30"/>
       <use xlink:href="#DejaVuSans-2e" x="63.623047"/>
       <use xlink:href="#DejaVuSans-32" x="95.410156"/>
      </g>
     </g>
    </g>
    <g id="ytick_17">
     <g id="line2d_109">
      <g>
       <use xlink:href="#mb3d762feae" x="1451.647059" y="401.540367" style="stroke: #000000; stroke-width: 0.8"/>
      </g>
     </g>
     <g id="text_65">
      <!-- 0.4 -->
      <g transform="translate(1428.743934 405.339586)scale(0.1 -0.1)">
       <use xlink:href="#DejaVuSans-30"/>
       <use xlink:href="#DejaVuSans-2e" x="63.623047"/>
       <use xlink:href="#DejaVuSans-34" x="95.410156"/>
      </g>
     </g>
    </g>
    <g id="ytick_18">
     <g id="line2d_110">
      <g>
       <use xlink:href="#mb3d762feae" x="1451.647059" y="294.51055" style="stroke: #000000; stroke-width: 0.8"/>
      </g>
     </g>
     <g id="text_66">
      <!-- 0.6 -->
      <g transform="translate(1428.743934 298.309769)scale(0.1 -0.1)">
       <use xlink:href="#DejaVuSans-30"/>
       <use xlink:href="#DejaVuSans-2e" x="63.623047"/>
       <use xlink:href="#DejaVuSans-36" x="95.410156"/>
      </g>
     </g>
    </g>
    <g id="ytick_19">
     <g id="line2d_111">
      <g>
       <use xlink:href="#mb3d762feae" x="1451.647059" y="187.480734" style="stroke: #000000; stroke-width: 0.8"/>
      </g>
     </g>
     <g id="text_67">
      <!-- 0.8 -->
      <g transform="translate(1428.743934 191.279952)scale(0.1 -0.1)">
       <use xlink:href="#DejaVuSans-30"/>
       <use xlink:href="#DejaVuSans-2e" x="63.623047"/>
       <use xlink:href="#DejaVuSans-38" x="95.410156"/>
      </g>
     </g>
    </g>
    <g id="text_68">
     <!-- tau_lb -->
     <g transform="translate(1422.386121 378.85625)rotate(-90)scale(0.1 -0.1)">
      <defs>
       <path id="DejaVuSans-62" d="M 3116 1747 
Q 3116 2381 2855 2742 
Q 2594 3103 2138 3103 
Q 1681 3103 1420 2742 
Q 1159 2381 1159 1747 
Q 1159 1113 1420 752 
Q 1681 391 2138 391 
Q 2594 391 2855 752 
Q 3116 1113 3116 1747 
z
M 1159 2969 
Q 1341 3281 1617 3432 
Q 1894 3584 2278 3584 
Q 2916 3584 3314 3078 
Q 3713 2572 3713 1747 
Q 3713 922 3314 415 
Q 2916 -91 2278 -91 
Q 1894 -91 1617 61 
Q 1341 213 1159 525 
L 1159 0 
L 581 0 
L 581 4863 
L 1159 4863 
L 1159 2969 
z
" transform="scale(0.015625)"/>
      </defs>
      <use xlink:href="#DejaVuSans-74"/>
      <use xlink:href="#DejaVuSans-61" x="39.208984"/>
      <use xlink:href="#DejaVuSans-75" x="100.488281"/>
      <use xlink:href="#DejaVuSans-5f" x="163.867188"/>
      <use xlink:href="#DejaVuSans-6c" x="213.867188"/>
      <use xlink:href="#DejaVuSans-62" x="241.650391"/>
     </g>
    </g>
   </g>
   <g id="line2d_112">
    <path d="M 1474.026738 521.933333 
L 1475.597242 560.549155 
L 1478.738249 603.523167 
L 1480.308753 615.6 
L 1719.025331 615.6 
L 1719.025331 615.6 
" clip-path="url(#pda9b7c149e)" style="fill: none; stroke: #1f77b4; stroke-width: 1.5; stroke-linecap: square"/>
   </g>
   <g id="line2d_113">
    <path d="M 1474.026738 615.6 
L 1728.448354 615.6 
L 1728.448354 615.6 
" clip-path="url(#pda9b7c149e)" style="fill: none; stroke: #ff7f0e; stroke-width: 1.5; stroke-linecap: square"/>
   </g>
   <g id="line2d_114">
    <path d="M 1474.026738 536.420486 
L 1475.597242 567.863699 
L 1477.167746 594.599535 
L 1478.738249 609.918236 
L 1480.308753 615.6 
L 1717.454827 615.6 
L 1717.454827 615.6 
" clip-path="url(#pda9b7c149e)" style="fill: none; stroke: #2ca02c; stroke-width: 1.5; stroke-linecap: square"/>
   </g>
   <g id="line2d_115">
    <path d="M 1474.026738 615.6 
L 1692.326766 615.6 
L 1692.326766 615.6 
" clip-path="url(#pda9b7c149e)" style="fill: none; stroke: #d62728; stroke-width: 1.5; stroke-linecap: square"/>
   </g>
   <g id="line2d_116">
    <path d="M 1474.026738 505.543644 
L 1475.597242 555.383742 
L 1477.167746 583.567932 
L 1478.738249 606.202415 
L 1480.308753 615.6 
L 1750.435407 615.6 
L 1750.435407 615.6 
" clip-path="url(#pda9b7c149e)" style="fill: none; stroke: #9467bd; stroke-width: 1.5; stroke-linecap: square"/>
   </g>
   <g id="line2d_117">
    <path d="M 1474.026738 596.384078 
L 1475.597242 613.639695 
L 1477.167746 615.6 
L 1752.00591 615.6 
L 1752.00591 615.6 
" clip-path="url(#pda9b7c149e)" style="fill: none; stroke: #8c564b; stroke-width: 1.5; stroke-linecap: square"/>
   </g>
   <g id="line2d_118">
    <path d="M 1474.026738 111.6 
L 1475.597242 270.87096 
L 1477.167746 396.26068 
L 1478.738249 470.972977 
L 1480.308753 504.461453 
L 1481.879257 528.495355 
L 1485.020265 570.481604 
L 1488.161272 599.200065 
L 1489.731776 609.527447 
L 1491.30228 615.6 
L 1921.620321 615.6 
L 1921.620321 615.6 
" clip-path="url(#pda9b7c149e)" style="fill: none; stroke: #e377c2; stroke-width: 1.5; stroke-linecap: square"/>
   </g>
   <g id="line2d_119">
    <path d="M 1474.026738 463.183039 
L 1475.597242 519.348703 
L 1477.167746 550.671451 
L 1478.738249 575.604995 
L 1481.879257 607.425741 
L 1483.449761 615.6 
L 1778.704475 615.6 
L 1778.704475 615.6 
" clip-path="url(#pda9b7c149e)" style="fill: none; stroke: #7f7f7f; stroke-width: 1.5; stroke-linecap: square"/>
   </g>
   <g id="line2d_120">
    <path d="M 1474.026738 407.390521 
L 1475.597242 478.353962 
L 1477.167746 521.815258 
L 1478.738249 554.300792 
L 1480.308753 582.030836 
L 1481.879257 600.923781 
L 1483.449761 614.737852 
L 1485.020265 615.6 
L 1810.114551 615.6 
L 1810.114551 615.6 
" clip-path="url(#pda9b7c149e)" style="fill: none; stroke: #bcbd22; stroke-width: 1.5; stroke-linecap: square"/>
   </g>
   <g id="line2d_121">
    <path d="M 1474.026738 544.303854 
L 1475.597242 580.146553 
L 1477.167746 604.550773 
L 1478.738249 615.6 
L 1692.326766 615.6 
L 1692.326766 615.6 
" clip-path="url(#pda9b7c149e)" style="fill: none; stroke: #17becf; stroke-width: 1.5; stroke-linecap: square"/>
   </g>
   <g id="line2d_122"/>
   <g id="line2d_123"/>
   <g id="line2d_124"/>
   <g id="line2d_125"/>
   <g id="line2d_126"/>
   <g id="line2d_127"/>
   <g id="line2d_128"/>
   <g id="line2d_129"/>
   <g id="line2d_130"/>
   <g id="line2d_131"/>
   <g id="line2d_132">
    <path d="M 1451.647059 615.6 
L 1944 615.6 
" clip-path="url(#pda9b7c149e)" style="fill: none; stroke-dasharray: 5.55,2.4; stroke-dashoffset: 0; stroke: #000000; stroke-width: 1.5"/>
   </g>
   <g id="patch_15">
    <path d="M 1451.647059 640.8 
L 1451.647059 86.4 
" style="fill: none; stroke: #000000; stroke-width: 0.8; stroke-linejoin: miter; stroke-linecap: square"/>
   </g>
   <g id="patch_16">
    <path d="M 1944 640.8 
L 1944 86.4 
" style="fill: none; stroke: #000000; stroke-width: 0.8; stroke-linejoin: miter; stroke-linecap: square"/>
   </g>
   <g id="patch_17">
    <path d="M 1451.647059 640.8 
L 1944 640.8 
" style="fill: none; stroke: #000000; stroke-width: 0.8; stroke-linejoin: miter; stroke-linecap: square"/>
   </g>
   <g id="patch_18">
    <path d="M 1451.647059 86.4 
L 1944 86.4 
" style="fill: none; stroke: #000000; stroke-width: 0.8; stroke-linejoin: miter; stroke-linecap: square"/>
   </g>
   <g id="legend_3">
    <g id="patch_19">
     <path d="M 1857.279687 258.640625 
L 1937 258.640625 
Q 1939 258.640625 1939 256.640625 
L 1939 93.4 
Q 1939 91.4 1937 91.4 
L 1857.279687 91.4 
Q 1855.279687 91.4 1855.279687 93.4 
L 1855.279687 256.640625 
Q 1855.279687 258.640625 1857.279687 258.640625 
z
" style="fill: #ffffff; opacity: 0.8; stroke: #cccccc; stroke-linejoin: miter"/>
    </g>
    <g id="text_69">
     <!-- sample -->
     <g transform="translate(1878.960938 102.998437)scale(0.1 -0.1)">
      <use xlink:href="#DejaVuSans-73"/>
      <use xlink:href="#DejaVuSans-61" x="52.099609"/>
      <use xlink:href="#DejaVuSans-6d" x="113.378906"/>
      <use xlink:href="#DejaVuSans-70" x="210.791016"/>
      <use xlink:href="#DejaVuSans-6c" x="274.267578"/>
      <use xlink:href="#DejaVuSans-65" x="302.050781"/>
     </g>
    </g>
    <g id="line2d_133">
     <path d="M 1859.279687 114.176562 
L 1869.279687 114.176562 
L 1879.279687 114.176562 
" style="fill: none; stroke: #1f77b4; stroke-width: 1.5; stroke-linecap: square"/>
    </g>
    <g id="text_70">
     <!-- sample_0 -->
     <g transform="translate(1887.279687 117.676562)scale(0.1 -0.1)">
      <use xlink:href="#DejaVuSans-73"/>
      <use xlink:href="#DejaVuSans-61" x="52.099609"/>
      <use xlink:href="#DejaVuSans-6d" x="113.378906"/>
      <use xlink:href="#DejaVuSans-70" x="210.791016"/>
      <use xlink:href="#DejaVuSans-6c" x="274.267578"/>
      <use xlink:href="#DejaVuSans-65" x="302.050781"/>
      <use xlink:href="#DejaVuSans-5f" x="363.574219"/>
      <use xlink:href="#DejaVuSans-30" x="413.574219"/>
     </g>
    </g>
    <g id="line2d_134">
     <path d="M 1859.279687 129.132812 
L 1869.279687 129.132812 
L 1879.279687 129.132812 
" style="fill: none; stroke: #ff7f0e; stroke-width: 1.5; stroke-linecap: square"/>
    </g>
    <g id="text_71">
     <!-- sample_1 -->
     <g transform="translate(1887.279687 132.632812)scale(0.1 -0.1)">
      <use xlink:href="#DejaVuSans-73"/>
      <use xlink:href="#DejaVuSans-61" x="52.099609"/>
      <use xlink:href="#DejaVuSans-6d" x="113.378906"/>
      <use xlink:href="#DejaVuSans-70" x="210.791016"/>
      <use xlink:href="#DejaVuSans-6c" x="274.267578"/>
      <use xlink:href="#DejaVuSans-65" x="302.050781"/>
      <use xlink:href="#DejaVuSans-5f" x="363.574219"/>
      <use xlink:href="#DejaVuSans-31" x="413.574219"/>
     </g>
    </g>
    <g id="line2d_135">
     <path d="M 1859.279687 144.089062 
L 1869.279687 144.089062 
L 1879.279687 144.089062 
" style="fill: none; stroke: #2ca02c; stroke-width: 1.5; stroke-linecap: square"/>
    </g>
    <g id="text_72">
     <!-- sample_2 -->
     <g transform="translate(1887.279687 147.589062)scale(0.1 -0.1)">
      <use xlink:href="#DejaVuSans-73"/>
      <use xlink:href="#DejaVuSans-61" x="52.099609"/>
      <use xlink:href="#DejaVuSans-6d" x="113.378906"/>
      <use xlink:href="#DejaVuSans-70" x="210.791016"/>
      <use xlink:href="#DejaVuSans-6c" x="274.267578"/>
      <use xlink:href="#DejaVuSans-65" x="302.050781"/>
      <use xlink:href="#DejaVuSans-5f" x="363.574219"/>
      <use xlink:href="#DejaVuSans-32" x="413.574219"/>
     </g>
    </g>
    <g id="line2d_136">
     <path d="M 1859.279687 159.045312 
L 1869.279687 159.045312 
L 1879.279687 159.045312 
" style="fill: none; stroke: #d62728; stroke-width: 1.5; stroke-linecap: square"/>
    </g>
    <g id="text_73">
     <!-- sample_3 -->
     <g transform="translate(1887.279687 162.545312)scale(0.1 -0.1)">
      <use xlink:href="#DejaVuSans-73"/>
      <use xlink:href="#DejaVuSans-61" x="52.099609"/>
      <use xlink:href="#DejaVuSans-6d" x="113.378906"/>
      <use xlink:href="#DejaVuSans-70" x="210.791016"/>
      <use xlink:href="#DejaVuSans-6c" x="274.267578"/>
      <use xlink:href="#DejaVuSans-65" x="302.050781"/>
      <use xlink:href="#DejaVuSans-5f" x="363.574219"/>
      <use xlink:href="#DejaVuSans-33" x="413.574219"/>
     </g>
    </g>
    <g id="line2d_137">
     <path d="M 1859.279687 174.001562 
L 1869.279687 174.001562 
L 1879.279687 174.001562 
" style="fill: none; stroke: #9467bd; stroke-width: 1.5; stroke-linecap: square"/>
    </g>
    <g id="text_74">
     <!-- sample_4 -->
     <g transform="translate(1887.279687 177.501562)scale(0.1 -0.1)">
      <use xlink:href="#DejaVuSans-73"/>
      <use xlink:href="#DejaVuSans-61" x="52.099609"/>
      <use xlink:href="#DejaVuSans-6d" x="113.378906"/>
      <use xlink:href="#DejaVuSans-70" x="210.791016"/>
      <use xlink:href="#DejaVuSans-6c" x="274.267578"/>
      <use xlink:href="#DejaVuSans-65" x="302.050781"/>
      <use xlink:href="#DejaVuSans-5f" x="363.574219"/>
      <use xlink:href="#DejaVuSans-34" x="413.574219"/>
     </g>
    </g>
    <g id="line2d_138">
     <path d="M 1859.279687 188.957812 
L 1869.279687 188.957812 
L 1879.279687 188.957812 
" style="fill: none; stroke: #8c564b; stroke-width: 1.5; stroke-linecap: square"/>
    </g>
    <g id="text_75">
     <!-- sample_5 -->
     <g transform="translate(1887.279687 192.457812)scale(0.1 -0.1)">
      <use xlink:href="#DejaVuSans-73"/>
      <use xlink:href="#DejaVuSans-61" x="52.099609"/>
      <use xlink:href="#DejaVuSans-6d" x="113.378906"/>
      <use xlink:href="#DejaVuSans-70" x="210.791016"/>
      <use xlink:href="#DejaVuSans-6c" x="274.267578"/>
      <use xlink:href="#DejaVuSans-65" x="302.050781"/>
      <use xlink:href="#DejaVuSans-5f" x="363.574219"/>
      <use xlink:href="#DejaVuSans-35" x="413.574219"/>
     </g>
    </g>
    <g id="line2d_139">
     <path d="M 1859.279687 203.914062 
L 1869.279687 203.914062 
L 1879.279687 203.914062 
" style="fill: none; stroke: #e377c2; stroke-width: 1.5; stroke-linecap: square"/>
    </g>
    <g id="text_76">
     <!-- sample_6 -->
     <g transform="translate(1887.279687 207.414062)scale(0.1 -0.1)">
      <use xlink:href="#DejaVuSans-73"/>
      <use xlink:href="#DejaVuSans-61" x="52.099609"/>
      <use xlink:href="#DejaVuSans-6d" x="113.378906"/>
      <use xlink:href="#DejaVuSans-70" x="210.791016"/>
      <use xlink:href="#DejaVuSans-6c" x="274.267578"/>
      <use xlink:href="#DejaVuSans-65" x="302.050781"/>
      <use xlink:href="#DejaVuSans-5f" x="363.574219"/>
      <use xlink:href="#DejaVuSans-36" x="413.574219"/>
     </g>
    </g>
    <g id="line2d_140">
     <path d="M 1859.279687 218.870312 
L 1869.279687 218.870312 
L 1879.279687 218.870312 
" style="fill: none; stroke: #7f7f7f; stroke-width: 1.5; stroke-linecap: square"/>
    </g>
    <g id="text_77">
     <!-- sample_7 -->
     <g transform="translate(1887.279687 222.370312)scale(0.1 -0.1)">
      <use xlink:href="#DejaVuSans-73"/>
      <use xlink:href="#DejaVuSans-61" x="52.099609"/>
      <use xlink:href="#DejaVuSans-6d" x="113.378906"/>
      <use xlink:href="#DejaVuSans-70" x="210.791016"/>
      <use xlink:href="#DejaVuSans-6c" x="274.267578"/>
      <use xlink:href="#DejaVuSans-65" x="302.050781"/>
      <use xlink:href="#DejaVuSans-5f" x="363.574219"/>
      <use xlink:href="#DejaVuSans-37" x="413.574219"/>
     </g>
    </g>
    <g id="line2d_141">
     <path d="M 1859.279687 233.826562 
L 1869.279687 233.826562 
L 1879.279687 233.826562 
" style="fill: none; stroke: #bcbd22; stroke-width: 1.5; stroke-linecap: square"/>
    </g>
    <g id="text_78">
     <!-- sample_8 -->
     <g transform="translate(1887.279687 237.326562)scale(0.1 -0.1)">
      <use xlink:href="#DejaVuSans-73"/>
      <use xlink:href="#DejaVuSans-61" x="52.099609"/>
      <use xlink:href="#DejaVuSans-6d" x="113.378906"/>
      <use xlink:href="#DejaVuSans-70" x="210.791016"/>
      <use xlink:href="#DejaVuSans-6c" x="274.267578"/>
      <use xlink:href="#DejaVuSans-65" x="302.050781"/>
      <use xlink:href="#DejaVuSans-5f" x="363.574219"/>
      <use xlink:href="#DejaVuSans-38" x="413.574219"/>
     </g>
    </g>
    <g id="line2d_142">
     <path d="M 1859.279687 248.782812 
L 1869.279687 248.782812 
L 1879.279687 248.782812 
" style="fill: none; stroke: #17becf; stroke-width: 1.5; stroke-linecap: square"/>
    </g>
    <g id="text_79">
     <!-- sample_9 -->
     <g transform="translate(1887.279687 252.282812)scale(0.1 -0.1)">
      <use xlink:href="#DejaVuSans-73"/>
      <use xlink:href="#DejaVuSans-61" x="52.099609"/>
      <use xlink:href="#DejaVuSans-6d" x="113.378906"/>
      <use xlink:href="#DejaVuSans-70" x="210.791016"/>
      <use xlink:href="#DejaVuSans-6c" x="274.267578"/>
      <use xlink:href="#DejaVuSans-65" x="302.050781"/>
      <use xlink:href="#DejaVuSans-5f" x="363.574219"/>
      <use xlink:href="#DejaVuSans-39" x="413.574219"/>
     </g>
    </g>
   </g>
  </g>
 </g>
 <defs>
  <clipPath id="p4415d408fc">
   <rect x="270" y="86.4" width="492.352941" height="554.4"/>
  </clipPath>
  <clipPath id="pc771fccdce">
   <rect x="860.823529" y="86.4" width="492.352941" height="554.4"/>
  </clipPath>
  <clipPath id="pda9b7c149e">
   <rect x="1451.647059" y="86.4" width="492.352941" height="554.4"/>
  </clipPath>
 </defs>
</svg>
